<svg xmlns="http://www.w3.org/2000/svg" viewBox="0 0 244 244"><g id="Layer_2" data-name="Layer 2"><g id="Layer_1-2" data-name="Layer 1"><path d="M229.92,188.35c7.83-15.34,12.6-30.74,14.08-46.14v-20.6a116.72,116.72,0,0,0-13.87-44.15c-16.55-30.8-42.74-49.55-76.51-57.74-.15.14-.3.29-.44.44q38,84.14,75.94,168.29Z"/><path d="M233.39,195.31a3.38,3.38,0,0,0,.06,2.66q5.25,11.75,10.55,23.47V172.85A131.18,131.18,0,0,1,233.39,195.31Z"/><path d="M137.24,74.59l-30.09,33.88a416.49,416.49,0,0,1,62.94,35.1Z"/><path d="M20.87,93.59c.46,0,.76,0,1.06,0,5-.39,10-1,15.06-1.14,14.62-.36,28.87,2.14,42.84,6.3,1.62.49,2.44.32,3.36-1.21q23.44-39.16,47-78.26c.36-.6.67-1.23,1.06-2C82.75,15.89,36.76,47.54,20.87,93.59Z"/><path d="M144.93,1.89c1.32,2.91,2.66,5.81,3.92,8.74a2.86,2.86,0,0,0,2.36,1.94,120.14,120.14,0,0,1,61.43,31.22,119.19,119.19,0,0,1,31.36,48V0H144.06C144.36.65,144.65,1.27,144.93,1.89Z"/><path d="M179.93,184.16c-21-17.91-43-34.44-67.43-47.51-16.71-9-34.17-15.88-52.82-19.62a144.13,144.13,0,0,0-36.84-2.73c-2.08.12-4.15.49-6.22.73-1,.11-1.41.58-1.55,1.64a113.18,113.18,0,0,0,6.19,55.68c1.79,4.76,4.14,9.31,6.25,13.94.25.54.61,1,1.08,1.79.94-1.53,1.75-2.81,2.53-4.1q16.3-27.1,32.56-54.24c.79-1.31,1.49-1.6,2.91-1.07,5.58,2,11.2,4,17.21,6.1L13.42,214l-.28-.2,4.71-7.8c2-3.32,3.92-6.68,6-9.94a2.31,2.31,0,0,0-.11-2.81A120.95,120.95,0,0,1,8.16,118.43c0-.3,0-.61,0-1.08a7.86,7.86,0,0,0-1,.2A27.92,27.92,0,0,0,0,121.08V244H242.82C222.71,223.17,202,203,179.93,184.16Z"/><path d="M11.34,95.86a3.09,3.09,0,0,0,2.35-2.2q23.87-65.13,91.48-80.72a109.39,109.39,0,0,1,28.61-2.3,2.35,2.35,0,0,0,2.47-1.36C138,6.22,139.87,3.2,141.81,0H0V100.25A55.61,55.61,0,0,1,11.34,95.86Z"/></g></g></svg>