<svg width="981" height="1081" viewBox="0 0 981 1081" fill="none" xmlns="http://www.w3.org/2000/svg">
<g opacity="0.7">
<path d="M355.53 825.772L355.515 830.315L332.432 830.236L332.44 827.928L353.263 827.999L353.275 824.379L355.53 825.772Z" fill="#1B1B1B"/>
<path d="M916.143 845.124L914.897 847.015L905.491 840.738C905.752 841.522 905.889 842.343 905.896 843.169C905.873 844.024 905.671 844.865 905.305 845.638C904.938 846.411 904.414 847.098 903.766 847.657C903.125 848.285 902.363 848.777 901.527 849.104C900.691 849.431 899.798 849.586 898.9 849.56C897.64 849.582 896.397 849.259 895.307 848.624C894.275 847.985 893.437 847.074 892.887 845.992C892.263 844.869 891.941 843.604 891.952 842.319C891.942 841.087 892.256 839.873 892.863 838.799C893.481 837.721 894.383 836.833 895.471 836.233C896.552 835.702 897.746 835.448 898.949 835.492C899.972 835.51 900.983 835.711 901.935 836.085C903.25 836.633 904.503 837.322 905.67 838.139L916.143 845.124ZM904.002 842.653C904.011 841.528 903.629 840.435 902.922 839.561C902.216 838.686 901.227 838.084 900.126 837.856C899.025 837.629 897.879 837.79 896.883 838.313C895.887 838.836 895.104 839.688 894.666 840.724C894.229 841.76 894.164 842.916 894.483 843.994C894.802 845.072 895.485 846.007 896.416 846.638C897.347 847.269 898.468 847.557 899.587 847.455C900.707 847.352 901.757 846.864 902.557 846.074C902.991 845.602 903.324 845.046 903.535 844.441C903.746 843.836 903.831 843.194 903.784 842.555L904.002 842.653Z" fill="#1B1B1B"/>
<path d="M609.126 212.267L609.134 210.031C610.174 210.026 611.205 210.227 612.167 210.622C613.129 211.017 614.003 211.599 614.739 212.334C615.452 213.038 616.012 213.88 616.386 214.809C616.759 215.739 616.936 216.735 616.907 217.736C616.944 218.69 616.78 219.641 616.425 220.527C616.07 221.413 615.533 222.215 614.848 222.88C614.211 223.519 613.452 224.023 612.616 224.362C611.78 224.702 610.884 224.87 609.982 224.856C608.69 224.854 607.42 224.524 606.292 223.896C604.619 222.85 603.067 221.622 601.664 220.235L595.487 214.455L595.451 225.097L593.215 225.09L593.269 209.442L602.788 218.295C604.086 219.609 605.515 220.786 607.052 221.809C607.941 222.338 608.955 222.618 609.99 222.62C610.619 222.627 611.243 222.501 611.821 222.252C612.4 222.003 612.92 221.636 613.348 221.174C613.812 220.71 614.177 220.157 614.421 219.548C614.665 218.939 614.784 218.287 614.769 217.632C614.788 216.951 614.668 216.274 614.415 215.642C614.162 215.01 613.783 214.437 613.3 213.957C612.17 212.89 610.68 212.287 609.126 212.267Z" fill="#1B1B1B"/>
<path d="M678.278 825.181L678.286 822.751C679.979 823.058 681.523 823.918 682.675 825.196C683.69 826.398 684.229 827.93 684.191 829.502C684.196 830.671 683.908 831.823 683.354 832.852C682.848 833.847 682.081 834.684 681.134 835.274C680.258 835.82 679.248 836.111 678.216 836.115C677.229 836.105 676.264 835.821 675.429 835.295C674.594 834.769 673.922 834.02 673.488 833.134C673.075 834.195 672.394 835.131 671.51 835.849C670.366 836.827 668.905 837.358 667.399 837.341C666.067 837.332 664.763 836.967 663.62 836.284C662.477 835.601 661.538 834.624 660.9 833.455C660.256 832.225 659.927 830.855 659.942 829.467C659.882 827.649 660.503 825.875 661.684 824.492C663.016 823.059 664.807 822.137 666.747 821.885L666.74 824.145C665.512 824.397 664.381 824.991 663.478 825.859C662.606 826.866 662.149 828.168 662.202 829.499C662.161 830.239 662.273 830.978 662.53 831.673C662.786 832.368 663.183 833.002 663.694 833.538C664.145 834.02 664.689 834.406 665.294 834.672C665.899 834.937 666.552 835.076 667.212 835.081C668.08 835.062 668.924 834.795 669.645 834.311C670.419 833.815 671.036 833.11 671.425 832.277C671.914 831.014 672.166 829.672 672.168 828.318L674.306 828.326C674.281 829.318 674.468 830.305 674.855 831.219C675.124 831.978 675.612 832.639 676.258 833.119C676.814 833.505 677.474 833.711 678.151 833.709C678.645 833.713 679.134 833.609 679.583 833.405C680.033 833.201 680.433 832.901 680.755 832.527C681.498 831.695 681.894 830.609 681.859 829.494C681.882 828.563 681.585 827.653 681.017 826.915C680.27 826.11 679.326 825.512 678.278 825.181Z" fill="#1B1B1B"/>
<path d="M897.493 213.043L895.306 213.035L895.334 204.822L888.972 203.707C889.24 204.591 889.384 205.507 889.4 206.43C889.425 207.396 889.249 208.357 888.882 209.251C888.515 210.145 887.965 210.953 887.268 211.622C886.544 212.304 885.692 212.834 884.76 213.182C883.828 213.529 882.836 213.686 881.843 213.645C880.391 213.657 878.96 213.292 877.692 212.586C876.477 211.923 875.471 210.935 874.786 209.733C874.095 208.457 873.748 207.024 873.779 205.574C873.742 203.834 874.364 202.144 875.521 200.842C876.651 199.507 878.241 198.646 879.976 198.428L879.967 200.858C879.187 200.986 878.446 201.291 877.802 201.749C877.228 202.202 876.769 202.783 876.459 203.445C875.972 204.459 875.825 205.603 876.041 206.707C876.256 207.811 876.821 208.816 877.653 209.573C878.223 210.121 878.896 210.55 879.634 210.837C880.371 211.123 881.158 211.26 881.948 211.24C882.648 211.265 883.345 211.148 883.997 210.896C884.65 210.643 885.244 210.26 885.744 209.771C886.239 209.247 886.625 208.629 886.878 207.954C887.13 207.279 887.245 206.56 887.215 205.839C887.124 204.155 886.709 202.503 885.993 200.976L897.454 203.153L897.493 213.043Z" fill="#1B1B1B"/>
<path d="M190.023 813.609L189.973 828.188L166.35 815.739L167.353 813.823L187.799 824.56L187.837 813.602L190.023 813.609Z" fill="#1B1B1B"/>
<path d="M419.247 835.566L420.469 833.675L429.972 839.953C429.711 839.168 429.574 838.348 429.567 837.521C429.56 836.644 429.735 835.776 430.081 834.97C430.426 834.164 430.936 833.438 431.576 832.839C432.36 832.1 433.303 831.55 434.331 831.23C435.36 830.909 436.448 830.828 437.513 830.991C438.578 831.154 439.592 831.557 440.478 832.17C441.363 832.783 442.098 833.59 442.626 834.529C443.252 835.642 443.574 836.9 443.561 838.177C443.563 839.42 443.24 840.641 442.625 841.721C441.999 842.787 441.098 843.665 440.017 844.264C438.93 844.865 437.708 845.178 436.466 845.175C435.443 845.157 434.432 844.956 433.479 844.581C432.157 844.048 430.903 843.358 429.745 842.527L419.247 835.566ZM431.534 838.038C431.529 839.327 432.037 840.565 432.945 841.48C433.854 842.394 435.088 842.91 436.377 842.915C437.014 842.933 437.648 842.818 438.239 842.577C438.83 842.337 439.364 841.976 439.807 841.517C440.261 841.067 440.621 840.533 440.868 839.944C441.114 839.355 441.242 838.723 441.245 838.084C441.247 837.445 441.123 836.813 440.881 836.222C440.638 835.631 440.281 835.094 439.831 834.641C439.393 834.175 438.862 833.806 438.273 833.557C437.684 833.308 437.05 833.185 436.41 833.196C435.121 833.191 433.883 833.699 432.969 834.607C432.054 835.515 431.538 836.75 431.534 838.038Z" fill="#1B1B1B"/>
<path d="M871.446 176.311L869.499 177.277L867.794 178.486L866.089 179.695L864.383 181.147L862.92 182.624L861.456 184.32L859.992 185.991L858.772 187.688L857.551 189.385L856.572 191.325L855.837 193.266L854.857 195.45L854.365 197.392L853.871 199.601L853.621 201.763L853.371 203.73L853.356 208.104L853.591 210.267L853.827 212.455L854.306 214.4L855.027 216.614L855.75 218.536L856.715 220.483L857.68 222.43L858.645 224.402L860.097 226.083L861.306 227.788L862.759 229.276L864.455 230.715L866.151 232.179L867.848 233.399L869.544 234.62L871.485 235.599L873.425 236.602L875.366 237.337L877.551 238.049L879.493 238.566L881.679 238.793L883.865 239.067L886.051 239.294L888.238 239.301L890.425 239.09L892.37 238.829L894.558 238.351L896.748 237.63L898.694 236.907L900.64 236.209L902.587 235.22L904.535 234.012L906.24 232.803L907.946 231.594L909.408 230.165L911.115 228.446L912.335 227.016L913.8 225.053L915.02 223.381L915.999 221.416L916.978 219.476L917.713 217.534L918.449 215.617L918.942 213.408L919.436 211.247L919.685 209.28L919.936 207.118L919.7 204.906L919.708 202.744L919.473 200.532L918.994 198.343L918.515 196.398L917.793 194.451L916.828 192.261L915.863 190.314L914.897 188.61L913.689 186.662L912.48 184.957L911.027 183.494L909.575 181.788L907.879 180.349L906.182 179.128L904.486 177.907L902.546 176.686L900.605 175.707L898.664 174.947L896.723 174.236L894.538 173.718L892.353 173.249L890.41 172.999L888.224 172.724L883.85 172.709L881.662 172.969L879.474 173.423L877.529 173.903L875.339 174.624L873.393 175.37L871.446 176.311ZM883.578 463.678L889.729 441.345L896.036 444.282L883.578 463.678ZM979.794 182.516L977.846 183.505L976.141 184.714L974.436 185.923L972.731 187.351L971.268 188.804L969.805 190.281L968.341 191.977L967.119 193.917L965.899 195.613L964.92 197.554L964.185 199.471L963.449 201.412L962.712 203.621L962.219 205.782L961.969 207.749L961.719 209.91L961.704 214.284L961.939 216.472L962.175 218.684L962.654 220.629L963.375 222.794L964.098 224.765L965.063 226.712L966.028 228.635L967.237 230.364L968.445 232.288L969.654 234.017L971.107 235.456L972.803 236.944L974.499 238.383L976.195 239.604L977.892 240.825L979.833 241.828L981.773 242.782L983.714 243.518L985.899 244.278L988.084 244.747L990.027 245.021L992.213 245.248L994.399 245.522L996.586 245.263L998.773 245.27L1000.96 244.792L1002.91 244.337L1005.1 243.858L1007.04 243.136L1008.99 242.147L1010.94 241.181L1012.88 240.24L1014.59 239.031L1016.29 237.555L1018 236.103L1019.46 234.675L1020.93 232.979L1022.15 231.258L1023.37 229.561L1024.35 227.621L1025.33 225.704L1026.06 223.763L1026.8 221.555L1027.29 219.637L1027.78 217.427L1028.03 215.266L1028.28 213.298L1028.29 211.136L1028.06 208.924L1027.82 206.761L1027.34 204.548L1026.86 202.627L1026.14 200.413L1025.42 198.467L1024.45 196.544L1023.25 194.596L1022.04 192.891L1020.83 191.161L1019.38 189.456L1017.92 188.017L1016.23 186.529L1014.53 185.308L1012.83 184.087L1010.89 182.866L1008.95 181.912L1007.01 181.176L1005.07 180.416L1002.89 179.68L1000.7 179.453L998.759 178.936L992.198 178.914L990.01 179.149L988.065 179.629L985.877 180.107L983.93 180.829L981.741 181.551L979.794 182.516ZM637.047 683.334L645.721 704.503L638.912 706.181L637.047 683.334ZM657.541 800.035L655.594 801L653.646 802.209L651.941 803.418L650.235 804.87L648.772 806.323L647.308 808.018L645.846 809.471L644.624 811.411L643.646 813.108L642.668 815.049L641.689 816.989L640.953 819.174L640.217 821.115L639.723 823.3L639.473 825.486L639.223 827.429L639.208 831.803L639.444 833.99L639.922 836.179L640.401 838.124L640.88 840.313L641.602 842.259L642.567 844.206L643.532 846.153L644.741 848.101L645.95 849.806L647.402 851.512L648.855 852.975L650.307 854.438L652.003 855.902L653.7 857.122L655.64 858.344L657.337 859.322L659.52 860.301L661.462 861.037L663.403 861.772L665.588 862.266L667.774 862.516L669.717 862.766L671.903 863.017L674.09 863.024L676.278 862.789L678.465 862.553L680.411 862.074L682.6 861.353L684.546 860.63L686.736 859.909L688.44 858.943L690.388 857.735L692.093 856.526L693.798 855.317L695.504 853.865L696.967 852.169L698.43 850.716L699.652 848.776L700.873 847.08L701.851 845.139L702.83 843.199L703.809 841.258L704.301 839.316L705.038 837.132L705.288 834.946L705.538 833.003L705.788 830.817L705.796 828.63L705.56 826.442L705.325 824.255L704.847 822.066L704.367 820.121L703.646 817.931L702.924 815.985L701.958 814.038L700.992 812.334L699.784 810.386L698.332 808.68L696.88 806.974L695.427 805.511L693.974 804.048L692.278 802.828L690.338 801.606L688.641 800.385L686.701 799.407L684.517 798.67L682.575 797.935L680.39 797.441L678.448 796.948L676.262 796.698L674.076 796.447L669.703 796.432L667.758 796.669L665.569 797.147L663.381 797.625L661.435 798.348L659.488 799.07L657.541 800.035ZM533.012 341.588L541.348 320.016L547.41 323.681L533.012 341.588ZM590.157 187.492L588.209 188.7L586.505 189.666L584.799 191.118L583.094 192.327L581.387 194.022L579.924 195.5L578.704 197.172L577.483 198.869L576.261 200.808L575.283 202.773L574.304 204.713L573.569 206.631L573.075 208.84L572.582 210.782L572.332 212.944L572.082 215.13L571.831 217.34L572.066 219.503L572.302 221.715L572.538 223.636L573.017 225.848L573.739 227.795L574.46 229.96L575.425 231.931L576.391 233.878L577.357 235.583L578.809 237.264L580.018 238.969L581.47 240.675L583.166 242.139L584.618 243.626L586.558 244.847L588.255 246.068L590.195 247.023L592.137 247.782L594.077 248.737L596.262 249.23L598.204 249.747L600.389 250.241L602.575 250.467L606.949 250.482L608.894 250.27L611.081 250.01L613.27 249.532L615.215 249.077L617.405 248.331L619.352 247.39L621.299 246.401L623.003 245.459L624.951 244.251L626.657 242.774L628.12 241.346L629.826 239.87L631.046 238.197L632.51 236.501L633.731 234.78L634.709 232.864L635.688 230.924L636.424 228.958L637.16 226.798L637.653 224.856L638.146 222.647L638.397 220.461L638.419 214.143L638.183 211.956L637.705 209.791L637.226 207.579L636.504 205.632L635.539 203.709L634.574 201.762L633.608 199.791L632.399 198.11L631.19 196.405L629.738 194.675L628.285 193.236L626.59 191.748L624.894 190.309L623.197 189.088L621.257 188.085L619.316 187.131L617.375 186.371L615.191 185.634L613.249 184.899L611.064 184.405L608.878 184.179L606.935 183.905L604.748 183.898L602.561 184.157L600.373 184.369L598.185 184.628L596.239 185.351L594.051 185.829L592.104 186.77L590.157 187.492ZM715.849 590.301L732.317 606.394L726.713 610.748L715.849 590.301ZM889.303 812.253L887.598 813.462L885.65 814.427L883.945 815.879L882.239 817.088L880.776 818.784L879.313 820.237L877.849 821.933L876.628 823.63L875.65 825.57L874.428 827.51L873.693 829.451L872.957 831.392L872.221 833.577L871.728 835.519L871.477 837.705L871.227 839.891L871.212 844.264L871.447 846.452L871.684 848.397L872.405 850.586L872.884 852.531L873.606 854.721L874.571 856.668L875.536 858.615L876.745 860.32L877.954 862.025L879.163 863.73L880.858 865.437L882.311 866.9L884.007 868.363L885.703 869.584L887.4 870.805L889.341 871.783L891.282 872.519L893.465 873.498L895.408 873.991L897.593 874.485L899.535 874.977L901.721 875.228L906.094 875.243L908.282 875.007L910.47 874.772L912.415 874.293L914.604 873.814L916.55 873.092L918.497 872.127L920.444 871.162L922.391 870.196L924.096 868.987L925.802 867.535L927.508 866.083L928.971 864.63L930.435 862.935L931.656 861.238L932.876 859.541L933.855 857.601L934.833 855.66L935.569 853.719L936.306 851.535L936.798 849.593L937.292 847.407L937.542 845.221L937.793 843.035L937.8 840.849L937.564 838.904L937.328 836.716L936.85 834.528L936.372 832.339L935.649 830.393L934.927 828.447L933.962 826.5L932.754 824.552L931.545 822.847L930.336 821.142L928.884 819.436L927.431 817.973L925.735 816.509L924.039 815.045L922.342 813.825L920.402 812.846L918.462 811.867L916.52 811.132L914.579 810.396L912.395 809.66L910.452 809.167L908.267 808.917L906.081 808.666L903.894 808.659L901.706 808.894L899.518 809.129L897.574 809.366L895.385 810.087L893.439 810.566L891.249 811.531L889.303 812.253ZM431.732 682.141L423.154 703.494L417.092 699.828L431.732 682.141ZM329.278 798.905L327.331 799.87L325.626 801.079L323.921 802.288L322.215 803.74L320.752 805.193L319.289 806.889L317.826 808.342L316.604 810.282L315.383 811.978L314.405 813.919L313.669 815.86L312.933 818.044L312.197 819.986L311.704 822.171L311.453 824.357L311.203 826.3L311.188 830.673L311.424 832.861L311.659 835.049L312.138 836.994L312.86 839.183L313.582 841.13L314.547 843.077L315.513 845.024L316.721 846.972L317.93 848.677L319.139 850.382L320.592 851.845L322.288 853.309L323.983 854.773L325.68 855.993L327.377 857.214L329.317 858.193L331.258 859.171L333.199 859.907L335.383 860.643L337.325 861.136L339.511 861.386L341.697 861.637L343.883 861.887L346.07 861.895L348.258 861.66L350.202 861.423L352.391 860.945L354.58 860.223L356.526 859.501L358.473 858.779L360.42 857.814L362.368 856.606L364.073 855.396L365.778 854.187L367.241 852.735L368.948 851.04L370.168 849.586L371.632 847.647L372.853 845.95L373.831 844.01L374.81 842.07L375.546 840.128L376.281 838.187L376.775 836.002L377.268 833.817L377.518 831.874L377.768 829.688L377.776 827.501L377.541 825.313L377.305 823.126L376.827 820.937L376.347 818.992L375.626 816.802L374.661 814.855L373.938 812.909L372.729 811.204L371.521 809.256L370.312 807.551L368.86 805.845L367.407 804.382L365.712 802.918L364.015 801.698L362.318 800.477L360.379 799.255L358.438 798.277L356.497 797.541L354.555 796.805L352.37 796.312L350.185 795.818L348.242 795.569L346.056 795.318L341.683 795.303L339.495 795.539L337.307 796.017L335.361 796.496L333.172 797.218L331.225 797.94L329.278 798.905Z" stroke="#1B1B1B" stroke-miterlimit="10"/>
<path d="M163.957 790.44L161.985 791.405L160.304 792.614L158.599 793.823L156.869 795.275L155.163 796.727L153.724 798.423L152.503 800.119L151.282 801.816L150.061 803.756L149.059 805.453L148.104 807.637L147.344 809.578L146.875 811.52L146.382 813.705L146.107 815.891L145.857 818.077L145.63 820.263L145.842 822.208L146.078 824.395L146.338 826.583L146.816 828.772L147.538 830.718L148.236 832.664L148.958 834.853L150.167 836.559L151.156 838.506L152.365 840.211L153.793 841.917L155.27 843.379L156.941 845.086L158.419 846.306L160.334 847.528L162.055 848.748L163.971 849.727L165.912 850.706L167.853 851.441L170.037 852.178L171.979 852.67L174.189 853.164L176.35 853.414L180.748 853.429L182.693 853.193L184.856 852.958L187.045 852.479L188.991 851.757L191.205 851.036L193.127 850.313L195.074 849.348L196.779 848.139L198.727 846.931L200.432 845.722L201.895 844.269L203.601 842.817L204.821 841.12L206.31 839.425L207.264 837.484L208.485 835.787L209.487 833.847L210.2 831.663L210.935 829.721L211.429 827.536L211.946 825.594L212.172 823.408L212.194 816.848L211.983 814.66L211.48 812.714L211.001 810.526L210.279 808.58L209.314 806.633L208.373 804.685L207.383 802.738L206.174 801.033L204.966 799.085L203.538 797.622L202.061 795.916L200.389 794.696L198.693 793.232L196.972 792.011L195.056 791.033L193.116 790.054L191.151 789.075L188.991 788.339L187.049 787.846L184.839 787.353L182.653 787.102L180.71 786.853L176.337 786.838L174.148 787.316L171.985 787.552L170.039 788.031L167.826 788.752L165.904 789.474L163.957 790.44M416.813 808.44L414.889 809.648L413.16 810.857L411.455 812.066L409.749 813.518L408.068 814.971L406.58 816.423L405.36 818.12L404.139 819.817L402.917 821.756L401.963 823.697L401.203 825.638L400.249 827.579L399.731 829.764L399.238 831.706L399.012 833.892L398.737 836.078L398.487 838.264L398.722 840.451L398.982 842.639L399.194 844.584L399.672 846.772L400.395 848.718L401.116 850.908L402.081 852.855L403.071 854.802L404.013 856.506L405.489 858.212L406.698 859.917L408.126 861.623L409.846 863.087L411.274 864.55L413.214 865.771L414.911 866.992L416.851 867.971L418.816 868.949L420.757 869.685L422.918 870.178L424.884 870.914L427.045 871.164L429.256 871.415L433.605 871.43L435.817 871.195L437.761 870.958L439.926 870.48L442.114 870.001L444.06 869.279L446.008 868.314L447.979 867.349L449.926 866.384L451.631 865.175L453.313 863.722L454.8 862.27L456.506 860.818L457.727 859.121L459.166 857.425L460.387 855.728L461.39 853.788L462.344 851.847L463.08 849.906L463.84 847.722L464.309 845.78L464.802 843.595L465.077 841.409L465.099 835.091L464.839 832.904L464.361 830.715L463.906 828.77L463.16 826.58L462.219 824.633L461.229 822.686L460.289 820.739L459.08 819.034L457.87 817.329L456.394 815.623L454.966 814.16L453.246 812.696L451.549 811.476L449.852 810.255L447.913 809.033L445.972 808.055L444.055 807.319L442.114 806.583L439.905 805.847L437.72 805.353L435.777 805.104L433.615 805.096L431.404 804.846L429.217 805.081L427.053 805.317L424.84 805.795L422.895 806.274L420.707 806.753L418.759 807.718L416.813 808.44V808.44ZM910.247 550.393L931.355 559.698L927.422 565.759L910.247 550.393ZM1042.66 616.939L1040.71 618.147L1039.01 619.113L1037.33 620.565L1035.62 621.774L1033.92 623.469L1032.45 624.922L1031.23 626.619L1030.01 628.316L1028.79 630.255L1027.81 632.196L1026.81 634.136L1026.07 636.077L1025.58 638.263L1025.11 640.205L1024.84 642.391L1024.61 644.577L1024.34 646.763L1024.59 648.95L1024.81 650.895L1025.07 653.083L1025.52 655.271L1026.27 657.217L1026.99 659.407L1027.71 661.353L1028.92 663.301L1029.89 665.005L1031.09 666.71L1032.55 668.416L1033.97 670.122L1035.67 671.586L1037.15 672.806L1039.09 674.27L1040.78 675.248L1042.72 676.47L1044.66 677.205L1046.58 678.184L1048.79 678.677L1050.73 679.17L1052.92 679.663L1055.08 679.914L1059.45 679.929L1061.42 679.693L1063.59 679.457L1065.8 678.979L1067.74 678.499L1069.93 677.778L1071.88 676.813L1073.83 675.848L1075.53 674.882L1077.48 673.673L1079.19 672.221L1080.62 670.768L1082.35 669.317L1083.57 667.62L1085.01 665.924L1086.02 663.984L1087.24 662.287L1088.22 660.346L1088.95 658.405L1089.69 656.221L1090.18 654.279L1090.67 652.094L1090.93 649.908L1090.95 643.347L1090.71 641.403L1090.23 639.214L1089.75 637.026L1089.03 635.079L1088.04 633.132L1087.1 631.185L1086.14 629.238L1084.93 627.533L1083.72 625.828L1082.27 624.122L1080.79 622.659L1079.09 621.195L1077.42 619.731L1075.73 618.511L1073.79 617.532L1071.82 616.553L1069.88 615.575L1067.72 615.081L1065.75 614.346L1063.59 613.852L1061.38 613.602L1059.46 613.352L1057.25 613.345L1055.09 613.58L1052.88 613.815L1050.71 614.051L1048.74 614.773L1046.58 615.252L1044.63 616.217L1042.66 616.939V616.939ZM215.129 670.34L213.349 693.174L206.551 691.693L215.129 670.34Z" stroke="#1B1B1B" stroke-miterlimit="10"/>
<path d="M361.367 799.99L431.727 682.143M871.698 235.845L764.791 453.187L871.698 235.845ZM981.502 242.54L883.549 463.558L981.502 242.54ZM664.689 797.389L637.042 683.336L664.689 797.389ZM588.493 246.047L533.032 341.59L588.493 246.047ZM884.427 815.397L715.845 590.303L884.427 815.397Z" stroke="#1B1B1B" stroke-linecap="round" stroke-linejoin="round"/>
<path d="M186.711 787.723L215.155 670.34M439.203 805.844L479.303 627.148L439.203 805.844ZM1029.92 628.558L910.153 550.392L1029.92 628.558Z" stroke="#1B1B1B" stroke-linecap="round" stroke-linejoin="round"/>
<path d="M763.579 455.365L764.307 455.61L764.793 455.612L765.522 455.371L766.009 455.13L766.496 454.889L766.741 454.404L766.985 453.919L766.99 452.704L766.748 452.217L766.507 451.73L766.023 451.242L765.538 450.998L763.837 450.992L763.349 451.476L762.862 451.718L762.617 452.446L762.372 452.931L762.37 453.417L762.611 454.146L762.852 454.633L763.094 455.12L763.579 455.365L764.801 453.182L763.579 455.365ZM883.583 463.553L889.734 441.22L896.042 444.158L883.583 463.553ZM637.051 683.331L645.726 704.5L638.917 706.177L637.051 683.331ZM533.017 341.585L541.353 319.989L547.415 323.654L533.017 341.585ZM715.854 590.298L732.322 606.391L726.718 610.745L715.854 590.298ZM431.737 682.138L423.159 703.491L417.097 699.825" fill="#1B1B1B"/>
<path d="M479.919 625.085L478.704 625.081L478.193 625.322L477.73 625.807L477.485 626.292L477.24 626.777L477.237 627.749L477.477 628.478L477.719 628.965L478.179 629.21L478.689 629.455L479.174 629.699L479.903 629.702L480.39 629.46L480.877 629.219L481.364 628.735L481.609 628.25L481.829 627.765L481.832 627.036L481.615 626.549L481.373 626.062L480.889 625.574L480.404 625.33L479.919 625.085L479.401 627.27L479.919 625.085ZM910.252 550.392L931.359 559.698L927.45 565.759L910.252 550.392ZM215.158 670.219L213.378 693.053L206.58 691.571" fill="#1B1B1B"/>
<path d="M460.501 618.454L473.31 631.376M481.096 635.412L483.009 637.363L481.096 635.412ZM481.812 632.256L486.412 636.889L481.812 632.256ZM482.551 629.1L489.089 635.683L482.551 629.1ZM474.924 663.82L480.976 670.158L474.924 663.82ZM775.51 439.369L775.998 438.884L775.51 439.369ZM473.324 627.367L475.26 629.561L473.324 627.367ZM473.579 623.966L476.267 626.405L473.579 623.966ZM475.07 621.299L481.123 627.637L475.07 621.299ZM476.753 619.361L491.282 633.99L476.753 619.361ZM478.946 617.667L492.748 631.565L478.946 617.667ZM481.864 616.948L493.73 628.652L481.864 616.948ZM486.019 616.963L493.743 624.765L486.019 616.963ZM474.51 431.043L480.564 436.92L474.51 431.043ZM474.016 426.425L485.154 437.64L474.016 426.425ZM474.756 423.268L488.072 436.946L474.756 423.268ZM476.222 420.844L490.507 435.472L476.222 420.844ZM478.197 418.907L492.458 433.535L478.197 418.907ZM480.631 417.7L493.948 431.11L480.631 417.7ZM483.768 416.982L494.665 427.711L483.768 416.982ZM488.624 417.971L493.709 423.091L488.624 417.971ZM659.478 477.36L660.445 478.578L659.478 477.36ZM706.724 587.107L713.504 593.934L706.724 587.107ZM888.764 573.398L908.756 553.542L888.764 573.398ZM861.587 569.659L910.351 520.988L861.587 569.659ZM826.341 573.669L904.972 495.457L826.341 573.669ZM905.483 495.216L907.653 493.036L905.483 495.216ZM799.262 569.688L876.064 493.413L799.262 569.688ZM764.016 573.94L848.863 489.675L764.016 573.94ZM739.253 567.78L813.86 493.685L739.253 567.78ZM697.18 578.57L786.66 489.704L697.18 578.57ZM666.322 578.464L749.219 496.136L666.322 578.464ZM635.221 578.357L718.385 496.029L635.221 578.357ZM604.362 578.25L698.474 484.905L604.362 578.25ZM573.528 578.266L667.713 484.799L573.528 578.266ZM542.743 578.16L636.855 484.693L542.743 578.16ZM517.98 572L605.754 484.586L517.98 572ZM486.391 572.377L574.896 484.48L486.391 572.377ZM459.19 568.639L544.038 484.374L459.19 568.639ZM424.212 572.649L503.672 493.468L424.212 572.649ZM411.616 554.139L473.789 492.393L411.616 554.139ZM411.722 523.281L446.588 488.655L411.722 523.281ZM762.949 636.747L775.359 624.398L762.949 636.747ZM750.864 617.996L775.465 593.54L750.864 617.996ZM748.203 466.367L762.588 452.324L748.203 466.367ZM775.356 625.37L780.683 630.734L775.356 625.37ZM796.18 646.338L808.045 658.285L796.18 646.338ZM775.463 594.269L838.903 658.391L775.463 594.269ZM781.622 569.749L839.979 628.265L781.622 569.749ZM812.384 569.49L845.315 602.649L812.384 569.49ZM843.267 569.596L874.745 601.292L843.267 569.596ZM893.715 589.209L905.579 601.398L893.715 589.209ZM775.889 470.593L799.884 494.974L775.889 470.593ZM775.995 439.735L830.961 495.081L775.995 439.735ZM796.925 429.845L861.843 495.187L796.925 429.845ZM804.296 406.301L840.617 442.873L804.296 406.301ZM861.199 463.597L879.118 481.396L861.199 463.597ZM835.421 406.408L840.723 412.015L835.421 406.408ZM892.057 463.703L904.165 475.651L892.057 463.703ZM686.487 466.154L744.027 409.009L686.487 466.154ZM641 480.577L651.484 470.165L641 480.577ZM655.629 466.048L737.088 384.93L655.629 466.048ZM610.142 480.471L615.507 474.9L610.142 480.471ZM677.191 413.882L729.124 362.063L677.191 413.882ZM579.041 480.363L585.38 474.068L579.041 480.363ZM676.566 383.507L720.452 340.164L676.566 383.507ZM667.651 361.608L695.202 334.246L667.651 361.608ZM715.625 683.722L742.688 656.845L715.625 683.722ZM684.767 683.616L732.578 636.157L684.767 683.616ZM653.908 683.51L720.494 617.405L653.908 683.51ZM623.075 683.404L709.361 597.443L623.075 683.404ZM601.702 673.611L678.503 597.337L601.702 673.611ZM601.808 642.753L651.058 593.84L601.808 642.753ZM601.914 611.895L631.173 582.595L601.914 611.895ZM586.66 596.291L600.339 582.489L586.66 596.291ZM490.037 430.999L502.628 443.653L490.037 430.999ZM532.411 473.885L540.644 482.175L532.411 473.885ZM482.152 392.071L566.901 477.625L482.152 392.071ZM497.029 376.061L523.81 403.051L497.029 376.061ZM497.789 345.861L527.549 375.826L497.789 345.861ZM512.885 329.852L537.849 355.208L512.885 329.852ZM481.097 670.402L492.986 682.349L481.097 670.402ZM488.251 646.371L523.82 682.455L488.251 646.371ZM491.48 618.682L554.946 682.562L491.48 618.682ZM520.886 617.326L585.78 682.668L520.886 617.326ZM531.888 597.439L601.625 667.658L531.888 597.439ZM545.797 580.478L566.864 601.447L545.797 580.478ZM573.644 608.274L601.732 636.557L573.644 608.274ZM207.837 643.462L246.095 681.985L207.837 643.462ZM200.461 605.046L276.953 682.091L200.461 605.046ZM196.184 569.799L307.811 682.197L196.184 569.799ZM194.838 537.235L338.912 682.304L194.838 537.235ZM195.429 506.864L369.771 682.41L195.429 506.864ZM197.811 478.322L400.75 682.639L197.811 478.322ZM201.55 451.121L405.191 655.926L201.55 451.121ZM206.742 425.164L305.317 524.373L206.742 425.164ZM345.271 564.602L420.335 640.184L345.271 564.602ZM213.144 400.621L266.415 454.26L213.144 400.621ZM364.966 553.493L448.021 637.121L364.966 553.493ZM220.515 376.834L264.826 421.72L220.515 376.834ZM376.962 534.338L396.066 553.843L376.962 534.338ZM410.353 568.228L458.539 616.747L410.353 568.228ZM238.539 364.019L272.681 398.664L238.539 364.019ZM388.183 514.696L390.604 517.134L388.183 514.696ZM441.235 568.334L487.461 614.659L441.235 568.334ZM269.422 364.003L282.232 376.925L269.422 364.003ZM399.67 495.175L402.334 497.857L399.67 495.175ZM472.312 568.319L514.445 610.743L472.312 568.319ZM410.915 475.533L428.736 493.696L410.915 475.533ZM503.097 568.547L518.086 583.663L503.097 568.547ZM422.305 456.012L459.715 493.803L422.305 456.012ZM433.646 436.612L490.792 493.91L433.646 436.612ZM478.308 450.13L516.832 489.14L478.308 450.13ZM416.696 419.545L423.235 425.91L416.696 419.545ZM406.875 378.472L471.527 443.546L406.875 378.472ZM424.174 364.658L474.563 415.614L424.174 364.658ZM455.033 364.764L467.406 377.198L455.033 364.764ZM469.077 378.905L481.934 392.095L469.077 378.905ZM406.16 656.901L430.374 681.283L406.16 656.901ZM423.699 643.841L462.201 682.364L423.699 643.841ZM453.348 642.485L469.087 658.333L453.348 642.485Z" stroke="#1B1B1B" stroke-linecap="round" stroke-linejoin="round"/>
<path d="M663.243 484.666L663.256 481.021L663.507 478.592L663.514 476.649M371.726 502.858L375.133 501.169L378.785 498.995L382.925 496.336L387.067 493.192L392.429 488.35L397.551 482.779L401.455 477.933L371.726 502.858ZM371.726 502.858L370.021 503.824L368.801 505.521L368.311 506.491L367.821 507.704L367.81 510.863L368.533 512.566L368.776 512.81L371.726 502.858ZM368.897 548.043L369.876 546.102L371.1 543.434L372.081 540.764L372.821 537.608L373.318 534.451L373.572 531.05L373.584 527.648L373.111 524.002L372.15 520.84L371.188 517.921L370.224 515.488L369.017 513.297L368.776 512.81L368.897 548.043ZM401.455 477.933L401.7 477.448L401.944 477.206L402.187 476.964L402.432 476.479L402.676 476.237L402.92 475.994L402.921 475.509L403.165 475.266L401.455 477.933ZM406.126 462.156L406.612 462.157L406.612 462.036L406.855 462.037L406.126 462.156ZM406.85 463.495L406.607 463.494L406.609 463.008L406.126 462.277L406.85 463.495ZM403.165 475.388L405.118 472.479L405.852 471.266L406.586 469.811L406.586 469.568L406.83 469.326L403.165 475.388ZM406.218 647.186L406.242 640.139L406.218 647.186ZM402.738 387.427L402.492 388.399L402.732 389.371L402.728 390.586L402.967 391.559L403.207 392.532L403.689 393.748L404.171 394.722L404.655 395.452L402.738 387.427ZM414.988 428.776L414.754 426.103L414.52 423.672L414.043 420.998L413.565 418.566L413.088 416.135L412.367 413.702L411.647 411.27L410.926 408.838L414.988 428.776ZM408.275 402.511L407.792 401.781L407.309 400.807L407.069 399.834L406.586 399.104L406.103 398.13L405.62 397.4L405.137 396.426L404.655 395.452L408.275 402.511ZM406.316 406.878L408.275 402.511L406.316 406.878ZM410.926 408.838L406.316 406.878L410.926 408.838ZM474.078 415.616L473.993 440.157L474.078 415.616ZM454.118 425.995L454.057 443.49L454.118 425.995ZM466.465 368.451L466.444 374.526L466.465 368.451ZM466.465 368.451L466.467 367.722L466.227 366.993L465.985 366.506L465.502 365.775L465.017 365.531L464.533 365.043L463.805 364.797L463.076 364.795L466.465 368.451ZM423.227 364.658L463.076 364.795L423.227 364.658ZM407.631 377.725L423.227 364.658L407.631 377.725ZM407.631 377.725L406.656 378.694L405.681 379.662L404.948 380.875L404.215 382.087L403.482 383.299L403.234 384.513L402.743 385.97L402.738 387.427L407.631 377.725ZM417.671 425.87L416.96 420.765L416.005 415.659L414.565 410.551L412.881 405.686L410.711 400.819L408.297 396.194L405.64 391.568L402.738 387.427L417.671 425.87ZM481.973 380.897L481.86 413.699L481.973 380.897ZM466.444 374.526L466.683 375.499L466.923 376.471L467.406 377.445L468.132 378.176L468.859 378.908L469.829 379.397L470.8 379.643L471.772 379.647L466.444 374.526ZM454.118 425.995L417.671 425.87L454.118 425.995ZM418.147 428.787L417.911 426.6L417.671 425.87L418.147 428.787ZM414.988 428.776L418.147 428.787L414.988 428.776ZM415.223 431.207L414.988 428.776L415.223 431.207ZM411.809 434.597L413.028 433.386L414.247 432.418L415.223 431.207L411.809 434.597ZM415.199 438.01L413.989 436.791L413.02 435.816L411.809 434.597L415.199 438.01ZM410.748 460.592L412.222 455.981L413.452 451.368L414.695 443.354L415.199 438.01L410.748 460.592ZM406.855 462.037L410.748 460.592L406.855 462.037ZM406.855 462.037L406.85 463.495L406.855 462.037ZM408.054 466.657L407.33 465.197L406.85 463.495L408.054 466.657ZM406.83 469.326L408.054 466.657L406.83 469.326ZM406.83 469.326L406.783 483.176L406.83 469.326ZM453.455 618.434L453.461 616.733L453.455 618.434ZM470.337 443.546L454.057 443.49L470.337 443.546ZM454.052 445.19L454.057 443.49L454.052 445.19ZM473.387 616.315L473.367 622.147L473.387 616.315ZM473.993 440.157L473.967 447.689L473.993 440.157ZM470.337 443.546L471.066 443.548L471.796 443.308L472.282 443.066L472.77 442.582L473.258 442.098L473.746 441.371L473.748 440.885L473.993 440.157L470.337 443.546ZM474.078 415.616L479.909 415.636L474.078 415.616ZM481.051 648.658L480.083 647.44L481.051 648.658ZM479.909 415.636L481.86 413.699L479.909 415.636ZM479.149 636.503L479.115 646.465L479.149 636.503ZM479.909 415.636L479.901 418.066L479.909 415.636ZM480.083 647.44L481.052 648.415L481.294 648.659L480.083 647.44ZM481.295 648.416L481.052 648.415L480.085 646.954L481.295 648.416ZM480.085 646.954L481.053 647.929L481.296 647.93L480.085 646.954ZM481.54 647.688L481.055 647.443L480.088 645.982L481.54 647.688ZM480.088 645.982L481.058 646.714L481.3 646.958L480.088 645.982ZM481.544 646.473L481.06 645.985L480.093 644.524L481.544 646.473ZM480.093 644.524L481.063 645.013L481.306 645.257L480.093 644.524ZM481.55 644.772L481.067 644.042L480.101 642.337L481.55 644.772ZM480.101 642.337L481.071 642.827L481.314 642.828L480.101 642.337ZM481.802 642.343L481.075 641.612L480.11 639.665L481.802 642.343ZM480.11 639.665L481.081 639.911L481.323 640.155L480.11 639.665ZM481.812 639.427L481.086 638.453L480.362 636.993L481.812 639.427ZM481.603 417.586L481.848 417.1L482.336 416.616L481.603 417.586ZM482.094 416.129L481.851 416.128L480.877 416.854L482.094 416.129ZM480.877 416.854L481.854 415.4L482.341 414.915L480.877 416.854ZM482.099 414.671L481.856 414.671L480.881 415.639L482.099 414.671ZM480.881 415.639L481.858 414.185L482.102 413.943L480.881 415.639ZM482.102 413.943L481.859 413.942L480.884 414.91L482.102 413.943ZM480.884 414.91L481.86 413.699L482.104 413.457L480.884 414.91ZM482.104 413.457L481.86 413.699L482.104 413.457ZM406.185 656.662L405.703 655.688L405.218 655.201L406.185 656.662ZM471.772 379.647L478.818 379.671L471.772 379.647ZM406.098 682.174L406.218 647.186L406.098 682.174ZM477.776 682.421L406.098 682.174L477.776 682.421ZM481.051 648.658L480.939 681.217L481.051 648.658ZM481.051 648.658L479.115 646.465L481.051 648.658ZM479.115 646.465L473.283 646.445L479.115 646.465ZM473.367 622.147L473.283 646.445L473.367 622.147ZM473.367 622.147L473.126 621.417L473.129 620.688L472.645 620.2L472.161 619.47L471.676 619.225L471.192 618.738L470.464 618.492L469.735 618.49L473.367 622.147ZM453.455 618.434L469.613 618.489L453.455 618.434ZM453.334 618.433L453.246 643.946L453.334 618.433ZM409.51 643.795L453.246 643.946L409.51 643.795ZM409.51 643.795L408.781 643.793L408.294 644.034L407.564 644.275L407.077 644.759L406.589 645.243L406.344 645.728L406.099 646.456L406.096 647.185L409.51 643.795ZM481.851 380.896L481.609 380.653L481.124 380.408L480.882 380.164L480.396 380.162L479.911 379.918L479.668 379.917L479.183 379.672L478.697 379.671L481.851 380.896ZM482.578 381.628L481.851 380.896L482.578 381.628ZM480.818 680.974L481.305 680.732L481.549 680.49L480.818 680.974ZM477.654 682.421L478.626 682.424L478.87 682.182L479.356 682.184L479.843 681.942L480.087 681.7L480.574 681.459L480.817 681.217L477.654 682.421ZM199.253 595.933L199.01 595.932L199.253 595.933ZM512.073 495.201L512.077 493.986L512.073 495.201ZM511.821 568.58L511.826 567.123L511.821 568.58ZM404.425 568.211L404.681 493.617L404.425 568.211ZM217.197 677.151L217.68 678.124L218.163 679.098L218.889 679.829L219.858 680.561L220.585 681.293L221.799 681.54L222.769 682.029L223.741 682.033L217.197 677.151ZM204.249 627.052L204.492 627.053L204.249 627.052ZM354.706 682.484L278.168 682.22L354.706 682.484ZM405.149 640.136L405.002 682.657L405.149 640.136ZM405.149 640.136L447.913 640.283L405.149 640.136ZM447.913 640.283L447.994 616.714L447.913 640.283ZM447.994 616.714L469.133 616.787L447.994 616.714ZM469.133 616.787L511.916 611.588L469.133 616.787ZM511.916 611.588L513.131 611.35L514.348 610.868L515.322 610.142L516.297 609.417L517.029 608.447L517.762 607.235L518.009 606.021L518.013 604.806L511.916 611.588ZM518.116 574.92L518.013 604.806L518.116 574.92ZM511.821 568.58L518.116 574.92L511.821 568.58ZM404.425 568.211L511.821 568.58L404.425 568.211ZM382.199 530.715L404.425 568.211L382.199 530.715ZM404.681 493.617L382.199 530.715L404.681 493.617ZM512.199 493.987L404.803 493.617L512.199 493.987ZM518.539 487.448L512.199 493.987L518.539 487.448ZM518.572 477.729L518.539 487.448L518.572 477.729ZM518.572 477.729L518.578 476.028L518.096 475.055L517.855 474.325L517.372 473.594L516.645 472.863L515.918 472.374L515.192 471.643L518.572 477.729ZM469.845 445.245L515.192 471.643L469.845 445.245ZM469.845 445.245L448.706 445.172L469.845 445.245ZM448.706 445.172L448.754 431.322L448.706 445.172ZM448.754 431.322L436.848 431.281L448.754 431.322ZM368.898 547.921L436.848 431.281L368.898 547.921ZM309.61 512.728L307.653 516.609L305.937 520.977L304.95 525.347L304.691 529.963L304.919 534.337L305.632 538.956L307.075 543.335L309.005 547.229L311.422 551.125L314.326 554.537L317.717 557.707L321.353 560.149L325.476 562.35L329.845 563.823L334.215 564.81L338.831 565.069L343.205 564.841L347.582 563.884L351.961 562.442L356.098 560.512L359.751 558.095L363.406 555.192L366.333 551.8L368.776 547.921L309.61 512.728ZM309.61 512.728L310.344 511.272L310.591 510.058L310.596 508.601L310.358 507.142L309.877 505.682L308.91 504.464L307.941 503.489L306.729 502.756L309.61 512.728ZM280.399 387.006L276.25 392.338L272.828 398.157L269.891 404.465L267.439 410.774L265.473 417.328L264.235 424.127L263.725 430.928L263.702 437.732L264.407 444.538L265.6 451.102L267.278 457.669L269.685 464.237L272.58 470.322L276.205 476.166L280.316 481.768L284.672 486.886L289.516 491.519L295.09 495.669L300.665 499.576L306.729 502.756L280.399 387.006ZM280.399 387.006L281.377 385.309L282.356 383.368L282.605 381.425L282.613 379.239L282.377 377.294L281.411 375.347L280.445 373.643L278.992 372.18L280.399 387.006ZM269.301 364.128L278.992 372.18L269.301 364.128ZM229.939 363.871L269.301 364.006L229.939 363.871ZM229.939 363.871L228.723 364.11L227.75 364.349L226.778 364.589L225.804 365.072L225.073 365.798L224.34 366.767L223.609 367.494L223.12 368.464L229.939 363.871ZM194.62 530.191L194.863 530.192L194.62 530.191ZM194.852 533.351L194.863 530.192L194.852 533.351ZM195.494 558.623L195.501 556.679L195.26 556.192L195.262 555.463L195.494 558.623ZM198.309 588.033L198.066 588.032L198.309 588.033ZM204.492 626.931L203.537 622.068L202.582 617.206L201.627 612.343L200.915 607.481L200.202 602.618L199.49 597.756L198.778 592.894L198.309 588.033L204.492 626.931ZM361.753 682.386L354.706 682.362L361.753 682.386ZM278.168 682.099L272.823 682.08L278.168 682.099ZM217.198 677.029L215.276 670.705L213.596 664.625L211.674 658.301L209.994 652.22L208.558 645.898L207.122 639.575L205.685 633.253L204.249 626.93L217.198 677.029ZM204.492 626.931L204.25 626.688L204.251 626.566L204.492 626.931ZM204.251 626.566L204.252 626.08L204.011 625.593L203.771 624.864L203.771 624.621L204.251 626.566ZM203.771 624.621L203.774 623.892L203.293 622.432L203.055 620.973L202.817 619.515L203.771 624.621ZM202.817 619.515L202.579 618.056L202.342 616.354L202.104 614.896L201.623 613.436L201.386 611.734L201.148 610.276L200.91 608.817L200.672 607.358L202.817 619.515ZM200.672 607.358L199.963 601.524L199.486 598.85L199.01 595.932L200.672 607.358ZM199.01 595.932L198.776 593.502L198.537 592.286L198.541 591.071L199.01 595.932ZM198.541 591.071L198.302 590.098L198.307 588.641L198.541 591.071ZM198.307 588.641L198.307 588.398L198.065 588.154L198.307 588.641ZM198.065 588.154L197.592 584.507L197.361 580.862L196.888 577.216L196.658 573.57L196.184 569.924L195.954 566.278L195.724 562.39L195.494 558.744L198.065 588.154ZM195.262 555.585L195.271 552.912L195.038 549.995L195.047 547.323L194.813 544.649L194.852 533.472L195.262 555.585ZM194.62 530.313L195.168 512.091L196.204 493.628L197.967 475.41L200.46 457.196L203.681 439.226L207.63 421.259L212.065 403.537L217.227 386.06L223.119 368.586L194.62 530.313ZM405.002 682.657L361.752 682.508L405.002 682.657ZM272.823 682.202L223.741 682.033L272.823 682.202ZM567.315 470.486L567.325 467.449L567.315 470.486ZM541.73 350.244L541.969 351.217L541.962 353.403L541.716 354.375L541.47 355.103L541.225 355.831L540.736 356.558L541.73 350.244ZM567.325 467.449L561.991 464.272L556.9 460.852L552.054 456.948L547.695 452.559L543.58 447.928L539.953 442.813L536.569 437.699L533.673 432.101L567.325 467.449ZM533.673 432.101L535.632 427.734L533.673 432.101ZM535.632 427.734L531.264 426.018L535.632 427.734ZM531.264 426.018L530.302 423.099L529.582 420.423L528.863 417.748L528.144 414.83L527.668 411.913L527.191 409.238L526.958 406.322L526.725 403.405L531.264 426.018ZM526.725 403.405L530.138 400.015L526.725 403.405ZM530.138 400.015L526.748 396.602L530.138 400.015ZM526.748 396.602L527.001 393.93L527.254 391.015L527.75 388.101L528.246 385.187L528.984 382.516L529.723 379.603L530.461 376.933L531.442 374.264L526.748 396.602ZM531.442 374.264L535.822 372.335L531.442 374.264ZM535.822 372.335L533.894 367.955L535.822 372.335ZM533.894 367.955L534.627 366.499L535.604 365.045L536.338 363.589L537.072 362.134L538.049 360.679L538.783 359.224L539.76 357.77L540.736 356.558L533.894 367.955ZM489.908 440.211L489.993 415.671L489.908 440.211ZM567.299 475.224L567.314 470.607L567.299 475.224ZM532.357 461.254L532.298 478.505L532.357 461.254ZM541.73 350.244L537.58 355.818L534.159 361.395L530.979 367.459L528.529 373.525L526.562 380.078L525.082 386.634L524.087 393.191L523.821 399.993L524.041 406.797L524.99 413.361L526.182 419.926L528.346 426.494L530.755 432.577L533.893 438.662L537.276 444.262L541.387 449.865L545.744 454.739L550.588 459.373L555.918 463.765L561.494 467.429L567.314 470.607L541.73 350.244ZM541.73 350.244L541.489 349.757L541.246 349.513L541.005 349.027L540.764 348.54L540.523 348.053L540.28 347.809L539.796 347.321L539.554 347.078L541.73 350.244ZM519.445 330L539.554 347.078L519.445 330ZM501.222 329.937L519.445 330L501.222 329.937ZM501.222 329.937L500.736 329.935L500.006 330.176L499.276 330.659L498.789 330.901L498.3 331.628L498.056 332.113L497.81 332.841L497.808 333.57L501.222 329.937ZM497.672 372.932L497.808 333.57L497.672 372.932ZM481.981 413.699L482.091 381.748L481.981 413.699ZM490.603 379.59L492.061 379.595L493.277 379.113L494.494 378.632L495.712 377.664L496.444 376.694L497.178 375.482L497.426 374.025L497.673 372.811L490.603 379.59ZM532.278 484.215L532.299 478.384L532.278 484.215ZM531.936 583.836L531.956 578.005L531.936 583.836ZM532.299 478.384L535.688 482.04L532.299 478.384ZM535.688 482.04L560.228 482.125L535.688 482.04ZM535.357 578.016L535.349 580.446L535.357 578.016ZM535.688 482.04L535.68 484.227L535.688 482.04ZM566.944 578.125L566.913 587.358L566.944 578.125ZM567.299 475.102L567.267 484.457L567.299 475.102ZM560.228 482.246L561.687 482.008L562.902 481.769L564.12 481.045L565.338 480.077L566.07 479.107L566.803 477.895L567.051 476.681L567.299 475.224L560.228 482.246ZM514.923 443.699L493.298 443.625L514.923 443.699ZM514.923 443.699L518.323 444.197L521.722 445.18L524.632 446.648L527.298 448.844L529.475 451.525L530.922 454.688L532.126 457.851L532.357 461.254L514.923 443.699ZM489.851 456.977L489.908 440.211L489.851 456.977ZM489.908 440.211L489.906 440.94L490.147 441.427L490.388 442.157L490.872 442.644L491.356 443.132L492.084 443.378L492.569 443.622L493.298 443.625L489.908 440.211ZM483.918 415.65L489.993 415.671L483.918 415.65ZM483.913 417.108L483.918 415.65L483.913 417.108ZM483.124 646.478L483.155 637.488L483.124 646.478ZM481.981 413.699L483.918 415.65L481.981 413.699ZM481.981 413.699L483.192 414.918L481.981 413.699ZM483.192 414.918L481.981 413.699L483.192 414.918ZM481.738 413.698L481.98 413.942L483.191 415.161L481.738 413.698ZM483.191 415.161L481.98 414.185L483.191 415.161ZM481.736 414.427L481.978 414.671L483.188 416.133L481.736 414.427ZM483.188 416.133L481.975 415.4L483.188 416.133ZM481.732 415.642L481.973 416.129L482.698 417.103L481.732 415.642ZM482.212 417.345L481.97 417.101L482.212 417.345ZM480.969 637.238L480.724 637.723L480.969 637.238ZM480.965 638.453L481.208 638.454L482.423 638.215L480.965 638.453ZM482.423 638.215L481.202 640.154L480.713 640.882L482.423 638.215ZM481.197 641.612L482.413 641.13L481.197 641.612ZM482.413 641.13L481.192 642.827L480.704 643.554L482.413 641.13ZM481.188 644.042L482.405 643.56L481.188 644.042ZM482.405 643.56L481.185 645.014L480.697 645.741L482.405 643.56ZM481.182 645.986L482.399 645.261L481.182 645.986ZM482.399 645.261L481.179 646.715L480.934 647.2L482.399 645.261ZM481.177 647.444L482.395 646.476L481.177 647.444ZM482.395 646.476L481.175 647.93L480.931 648.172L482.395 646.476ZM481.173 648.416L482.392 647.205L481.173 648.416ZM482.392 647.205L481.173 648.416L480.929 648.658L482.392 647.205ZM480.929 648.658L481.172 648.659L480.929 648.658ZM566.913 587.358L566.674 586.142L566.436 584.684L565.711 583.466L564.985 582.492L563.774 581.516L562.561 581.026L561.348 580.536L559.89 580.531L566.913 587.358ZM559.89 580.531L535.349 580.446L559.89 580.531ZM535.349 580.446L531.936 583.836L535.349 580.446ZM531.936 583.836L531.876 601.087L531.936 583.836ZM531.876 601.087L531.621 604.488L530.395 607.886L528.927 610.797L526.731 613.462L524.051 615.639L521.129 617.33L517.724 618.29L514.321 618.522L531.876 601.087ZM492.696 618.447L514.321 618.522L492.696 618.447ZM492.696 618.447L491.968 618.445L491.481 618.686L490.75 619.169L490.263 619.411L489.775 620.138L489.53 620.623L489.285 621.351L489.282 622.08L492.696 618.447ZM489.199 646.378L489.282 622.08L489.199 646.378ZM489.199 646.378L483.124 646.357L489.199 646.378ZM483.124 646.357L481.173 648.537L483.124 646.357ZM481.064 680.124L481.173 648.537L481.064 680.124ZM601.573 682.726L601.799 617.122L601.573 682.726ZM601.799 617.122L601.562 615.42L601.082 613.718L600.358 612.257L599.147 611.038L597.937 609.819L596.481 609.085L594.782 608.593L593.082 608.345L601.799 617.122ZM566.841 608.254L593.082 608.345L566.841 608.254ZM566.841 608.254L566.913 587.358L566.841 608.254ZM481.064 680.124L481.548 680.612L482.033 681.099L482.761 681.345L483.488 681.833L483.973 682.078L484.702 682.081L485.43 682.326L486.159 682.329L481.064 680.124ZM487.201 379.578L486.471 379.819L485.743 379.816L485.013 380.057L484.526 380.298L483.796 380.539L483.066 380.779L482.579 381.263L482.091 381.748L487.201 379.578ZM487.201 379.578L490.603 379.59L487.201 379.578ZM601.573 682.726L486.159 682.329L601.573 682.726ZM573.887 608.278L573.929 596.13L573.887 608.278ZM574.328 480.229L574.345 475.37L574.328 480.229ZM651.352 480.494L651.396 467.738L651.352 480.494ZM734.803 378.365L719.738 378.313L734.803 378.365ZM719.747 375.641L719.738 378.313L719.747 375.641ZM719.747 375.641L734.083 375.69L719.747 375.641ZM719.632 338.464L719.15 337.491L718.423 336.759L717.697 336.028L716.97 335.296L716 334.807L715.272 334.562L714.301 334.315L713.086 334.311L719.632 338.464ZM681.985 334.204L713.086 334.311L681.985 334.204ZM663.465 349.691L681.985 334.204L663.465 349.691ZM663.465 349.691L662.977 350.175L662.49 350.66L662.245 351.145L662.238 353.332L662.479 353.818L662.719 354.548L663.465 349.691ZM578.972 472.348L585.283 474.071L591.839 475.308L598.397 476.06L604.958 476.083L611.52 475.619L618.084 474.427L624.651 472.749L630.733 470.583L636.816 467.931L642.659 464.549L648.017 460.923L653.135 456.567L658.01 451.967L662.159 446.879L666.065 441.547L669.486 435.727L672.422 429.905L674.631 423.596L676.353 417.284L677.591 410.728L678.099 404.169L678.366 397.367L677.659 390.804L676.71 384.24L674.788 377.916L672.623 371.591L669.97 365.75L666.589 359.907L662.719 354.548L578.972 472.348ZM578.972 472.348L578 472.102L577.272 472.1L576.542 472.34L575.811 472.823L575.081 473.307L574.592 474.034L574.347 474.762L574.344 475.491L578.972 472.348ZM574.327 480.351L574.313 484.481L574.327 480.351ZM651.337 484.746L651.351 480.616L651.337 484.746ZM651.351 480.616L574.327 480.351L651.351 480.616ZM573.99 578.271L573.976 582.401L573.99 578.271ZM651 582.666L651.014 578.536L651 582.666ZM653.102 466.043L652.616 466.041L652.373 466.284L652.13 466.283L651.886 466.525L651.642 466.767L651.397 467.252L651.396 467.738L653.102 466.043ZM653.102 466.043L711.174 466.243L653.102 466.043ZM711.174 466.243L714.112 459.693L717.294 453.143L720.717 446.837L724.383 440.532L728.292 434.471L732.443 428.654L736.836 423.081L741.471 417.508L711.174 466.243ZM710.731 595.021L710.722 597.451L710.731 595.021ZM710.801 574.611L710.775 582.143L710.801 574.611ZM711.174 466.243L711.095 489.326L711.174 466.243ZM741.471 417.508L742.204 416.539L742.937 415.326L743.427 414.113L743.674 412.899L743.921 411.685L743.93 409.012L743.692 407.797L741.471 417.508ZM742.837 656.12L743.084 654.906L743.093 652.233L742.854 651.017L742.616 649.802L742.134 648.585L741.408 647.611L740.683 646.636L742.837 656.12ZM740.683 646.636L736.085 641.032L731.732 635.185L727.621 629.34L723.754 623.252L720.132 616.922L716.752 610.593L713.615 604.021L710.722 597.451L740.683 646.636ZM710.722 597.451L652.651 597.251L710.722 597.451ZM650.956 595.544L650.953 596.273L651.195 596.517L651.437 596.761L651.68 597.005L651.922 597.249L652.651 597.251L650.956 595.544ZM650.956 595.544L651 582.666L650.956 595.544ZM573.976 582.401L651 582.666L573.976 582.401ZM573.928 596.251L573.976 582.401L573.928 596.251ZM601.871 596.347L573.928 596.251L601.871 596.347ZM601.571 683.333L601.871 596.347L601.571 683.333ZM719.632 338.464L721.56 343.088L723.488 347.711L725.416 352.334L727.101 356.957L729.029 361.58L730.714 366.202L732.399 370.825L734.083 375.69L719.632 338.464ZM734.56 378.364L733.838 376.175L733.84 375.689L734.56 378.364ZM734.803 378.365L736.005 382.014L737.207 385.663L738.41 389.312L739.611 393.204L740.571 396.852L741.773 400.501L742.732 404.149L743.692 407.797L734.803 378.365ZM742.837 656.12L742.098 659.033L741.116 661.945L740.378 664.616L739.639 667.529L738.657 670.441L737.918 673.354L736.937 676.024L735.955 678.936L742.837 656.12ZM729.378 683.773L601.571 683.333L729.378 683.773ZM729.378 683.773L730.35 683.777L731.566 683.295L732.539 683.055L733.513 682.33L734.245 681.603L734.976 680.877L735.708 679.907L735.955 678.936L729.378 683.773ZM840.646 406.429L840.651 404.729L840.646 406.429ZM796.91 406.279L796.915 404.578L796.91 406.279ZM840.651 404.729L840.655 403.757L840.173 402.54L838.961 401.564L837.99 401.318L837.262 401.072L840.651 404.729ZM800.573 400.946L837.262 401.072L800.573 400.946ZM800.573 400.946L799.357 401.185L798.626 401.668L797.652 402.394L797.163 403.364L796.915 404.578L800.573 400.946ZM840.646 406.429L840.485 453.081L840.646 406.429ZM796.828 430.091L796.91 406.279L796.828 430.091ZM775.731 488.333L775.907 437.065L775.731 488.333ZM910.422 465.228L910.386 475.676L910.422 465.228ZM878.996 488.689L879.041 475.568L878.996 488.689ZM851.019 463.566L909.09 463.765L851.019 463.566ZM840.606 453.082L840.843 455.026L841.565 456.973L842.53 458.92L843.74 460.382L845.194 461.602L847.134 462.58L849.076 463.316L851.019 463.566L840.606 453.082ZM797.031 406.279L840.767 406.43L797.031 406.279ZM872.535 495.227L782.39 494.917L872.535 495.227ZM775.838 492.464L775.852 488.334L775.838 492.464ZM775.551 575.806L775.564 572.161L775.551 575.806ZM782.39 494.917L775.852 488.334L782.39 494.917ZM879.095 495.25L879.118 488.689L879.095 495.25ZM879.118 488.689L872.535 495.227L879.118 488.689ZM872.278 569.821L872.279 569.578L872.278 569.821ZM910.438 495.844L910.507 475.676L910.438 495.844ZM910.116 589.39L910.185 569.223L910.116 589.39ZM879.163 475.569L910.507 475.676L879.163 475.569ZM909.09 463.765L910.543 465.228L909.09 463.765ZM779.442 433.676L778.713 433.673L778.226 433.914L777.497 434.155L777.009 434.639L776.521 435.123L776.276 435.851L776.031 436.337L776.029 437.066L779.442 433.676ZM779.442 433.676L793.413 433.724L779.442 433.676ZM793.413 433.724L794.142 433.726L794.629 433.485L795.36 433.001L795.846 432.76L796.335 432.033L796.58 431.548L796.825 430.82L796.828 430.091L793.413 433.724ZM782.012 569.511L872.278 569.821L782.012 569.511ZM775.551 575.806L782.133 569.511L775.551 575.806ZM775.375 627.074L775.551 575.806L775.375 627.074ZM775.375 627.074L775.372 627.803L775.613 628.533L775.854 629.02L776.338 629.507L776.823 629.995L777.551 630.24L778.036 630.485L778.764 630.73L775.375 627.074ZM792.857 630.779L778.764 630.73L792.857 630.779ZM796.247 634.192L796.249 633.463L796.009 632.734L795.767 632.247L795.283 631.759L794.799 631.272L794.071 631.026L793.585 630.781L792.857 630.779L796.247 634.192ZM796.164 658.247L796.247 634.192L796.164 658.247ZM840.06 611.746L839.9 658.398L840.06 611.746ZM850.544 601.334L848.6 601.327L846.654 602.049L844.707 603.015L843.245 604.225L842.024 605.921L841.046 607.619L840.311 609.56L840.06 611.746L850.544 601.334ZM908.616 601.534L850.544 601.334L908.616 601.534ZM910.08 599.838L908.616 601.534L910.08 599.838ZM910.116 589.39L910.08 599.838L910.116 589.39ZM910.116 589.39L878.772 589.282L910.116 589.39ZM878.772 589.282L878.817 576.161L878.772 589.282ZM872.278 569.821L878.817 576.161L872.278 569.821ZM796.158 659.948L796.398 660.678L796.88 661.894L797.849 662.87L799.062 663.36L799.791 663.362L796.158 659.948ZM836.48 663.489L799.791 663.362L836.48 663.489ZM836.48 663.489L837.453 663.249L838.426 663.009L839.157 662.283L839.647 661.313L839.894 660.099L836.48 663.489ZM839.894 660.099L839.9 658.398L839.894 660.099ZM839.9 658.398L796.164 658.247L839.9 658.398ZM796.158 659.948L796.164 658.247L796.158 659.948ZM776.066 426.375L775.873 482.259L776.066 426.375ZM765.419 483.924L765.474 468.131L765.419 483.924ZM775.53 581.88L775.337 638.008L775.53 581.88ZM765.034 595.937L765.088 580.143L765.034 595.937ZM772.217 485.649L767.114 485.631L772.217 485.649ZM766.795 578.448L771.897 578.466L766.795 578.448ZM765.382 494.858L765.419 483.924L765.382 494.858ZM765.088 580.143L765.104 575.527L765.088 580.143ZM765.419 483.924L765.417 484.653L765.659 484.897L765.901 485.141L766.143 485.385L766.385 485.628L767.114 485.631L765.419 483.924ZM766.795 578.448L766.309 578.447L766.065 578.689L765.822 578.688L765.578 578.93L765.334 579.172L765.091 579.415L765.088 580.143L766.795 578.448ZM775.53 581.88L775.532 581.394L775.291 580.665L774.808 579.934L774.567 579.447L773.839 578.959L773.354 578.714L772.626 578.469L771.897 578.466L775.53 581.88ZM772.217 485.649L772.946 485.651L773.676 485.411L774.162 485.169L774.893 484.686L775.138 484.201L775.625 483.716L775.871 482.988L775.873 482.259L772.217 485.649ZM765.474 468.131L765.475 467.888L765.232 467.644L764.991 467.157L764.992 466.914L764.507 466.67L764.264 466.669L764.022 466.425L763.536 466.423L765.474 468.131ZM763.084 597.631L763.691 597.633L763.935 597.391L764.422 597.15L764.423 596.907L764.667 596.665L764.911 596.18L764.912 595.937L763.084 597.631ZM763.414 466.423L746.649 466.365L763.414 466.423ZM746.197 597.573L762.963 597.631L746.197 597.573ZM743.507 461.495L743.261 462.223L743.015 463.194L743.255 463.924L743.738 464.897L744.222 465.385L744.95 465.873L745.677 466.362L746.649 466.365L743.507 461.495ZM746.197 597.573L745.224 597.813L744.495 598.053L743.764 598.537L743.276 599.264L742.787 599.991L742.542 600.719L742.781 601.692L743.022 602.422L746.197 597.573ZM765.246 640.16L761.859 635.775L758.717 631.147L755.816 626.764L752.917 621.894L750.26 617.268L747.604 612.4L745.191 607.532L743.022 602.422L765.246 640.16ZM743.507 461.495L745.71 456.643L748.158 451.548L750.847 446.698L753.536 442.091L756.467 437.484L759.399 432.878L762.573 428.515L765.99 424.153L743.507 461.495ZM768.667 422.704L768.424 422.704L767.938 422.945L767.695 422.944L767.208 423.185L766.965 423.184L766.478 423.426L766.234 423.668L765.99 424.153L768.667 422.704ZM765.246 640.16L765.488 640.404L765.73 640.648L766.215 640.892L766.457 641.136L766.943 641.138L767.186 641.382L767.915 641.384L765.246 640.16ZM771.559 641.397L772.288 641.399L773.018 641.159L773.505 640.918L774.235 640.434L774.48 639.949L774.968 639.222L775.213 638.737L775.216 638.008L771.559 641.397ZM775.944 426.374L775.947 425.645L775.706 424.915L775.222 424.428L774.981 423.698L774.253 423.453L773.769 422.965L773.041 422.719L772.312 422.717L775.944 426.374ZM768.667 422.704L772.312 422.717L768.667 422.704ZM771.559 641.397L767.915 641.384L771.559 641.397ZM756.247 572.095L756.246 572.338L756.247 572.095ZM891.817 575.963L891.573 576.205L891.817 575.963ZM766.925 575.776L766.682 575.775L766.925 575.776ZM905.919 573.339L905.431 573.823L905.919 573.339ZM809.262 488.449L810.72 488.454L809.262 488.449ZM809.262 488.449L808.04 490.388L807.062 492.086L805.108 495.238L809.262 488.449ZM805.108 495.238L802.192 495.228L805.108 495.238ZM802.192 495.228L800.983 493.523L800.018 491.576L798.328 488.411L802.192 495.228ZM796.627 488.405L798.328 488.411L796.627 488.405ZM796.627 488.405L795.648 490.346L794.67 492.043L792.716 495.195L796.627 488.405ZM792.716 495.195L789.557 495.184L792.716 495.195ZM789.557 495.184L788.591 493.48L787.626 491.533L785.693 488.368L789.557 495.184ZM784.235 488.363L785.693 488.368L784.235 488.363ZM784.235 488.363L783.013 490.302L782.036 492L780.324 495.153L784.235 488.363ZM780.324 495.153L777.165 495.142L780.324 495.153ZM777.165 495.142L775.956 493.437L774.991 491.49L773.301 488.325L777.165 495.142ZM771.6 488.319L773.301 488.325L771.6 488.319ZM771.6 488.319L770.622 490.26L769.644 491.957L767.689 495.109L771.6 488.319ZM767.689 495.109L764.53 495.098L767.689 495.109ZM764.53 495.098L763.564 493.394L762.599 491.447L760.666 488.282L764.53 495.098ZM759.937 488.279L760.666 488.282L759.937 488.279ZM759.937 488.279L757.987 490.216L759.937 488.279ZM757.987 490.216L757.009 491.914L755.297 495.067L757.987 490.216ZM755.297 495.067L753.11 495.059L755.297 495.067ZM753.11 495.059L752.867 495.301L753.11 495.059ZM752.863 496.273L752.867 495.301L752.863 496.273ZM717.874 496.153L752.863 496.273L717.874 496.153ZM706.979 484.938L717.874 496.153L706.979 484.938ZM518.428 484.289L706.979 484.938L518.428 484.289ZM518.414 488.42L518.428 484.289L518.414 488.42ZM511.587 495.2L512.802 495.204L514.262 494.723L515.478 494.241L516.454 493.272L517.429 492.304L517.919 491.091L518.41 489.634L518.414 488.42L511.587 495.2ZM504.541 495.175L511.587 495.2L504.541 495.175ZM504.543 494.446L504.541 495.175L504.543 494.446ZM504.543 494.446L503.333 493.227L504.543 494.446ZM503.333 493.227L502.843 494.198L503.333 493.227ZM502.843 494.198L499.685 494.187L502.843 494.198ZM499.685 494.187L498.476 492.482L497.51 490.534L495.82 487.37L499.685 494.187ZM494.12 487.364L495.82 487.37L494.12 487.364ZM494.12 487.364L493.141 489.305L492.163 491.002L490.209 494.154L494.12 487.364ZM490.209 494.154L487.05 494.143L490.209 494.154ZM487.05 494.143L486.084 492.439L485.119 490.492L483.186 487.326L487.05 494.143ZM481.728 487.321L483.186 487.326L481.728 487.321ZM481.728 487.321L480.749 489.262L479.528 490.959L477.817 494.111L481.728 487.321ZM477.817 494.111L474.658 494.101L477.817 494.111ZM474.658 494.101L473.692 492.396L472.484 490.448L470.794 487.284L474.658 494.101ZM469.093 487.278L470.794 487.284L469.093 487.278ZM469.093 487.278L468.114 489.218L467.137 490.916L465.182 494.068L469.093 487.278ZM465.182 494.068L462.023 494.057L465.182 494.068ZM462.023 494.057L461.057 492.353L460.092 490.406L458.159 487.24L462.023 494.057ZM456.701 487.235L458.159 487.24L456.701 487.235ZM456.701 487.235L455.722 489.176L454.502 490.872L452.79 494.025L456.701 487.235ZM452.79 494.025L449.631 494.014L452.79 494.025ZM449.631 494.014L448.665 492.31L447.7 490.363L445.767 487.198L449.631 494.014ZM444.309 487.193L445.767 487.198L444.309 487.193ZM444.309 487.193L443.088 489.132L442.11 490.83L440.155 493.982L444.309 487.193ZM440.155 493.982L437.239 493.972L440.155 493.982ZM437.239 493.972L436.03 492.267L435.065 490.32L433.375 487.155L437.239 493.972ZM431.674 487.149L433.375 487.155L431.674 487.149ZM431.674 487.149L430.696 489.09L429.718 490.787L427.763 493.939L431.674 487.149ZM427.763 493.939L424.605 493.928L427.763 493.939ZM424.605 493.928L423.639 492.224L422.673 490.277L420.74 487.111L424.605 493.928ZM419.283 487.106L420.74 487.111L419.283 487.106ZM419.283 487.106L418.061 489.046L417.083 490.744L415.371 493.896L419.283 487.106ZM415.371 493.896L412.213 493.886L415.371 493.896ZM412.213 493.886L411.726 494.127L412.213 493.886ZM411.473 567.506L411.726 494.127L411.473 567.506ZM411.473 567.506L415.832 571.895L411.473 567.506ZM415.832 571.895L416.321 570.925L418.033 567.772L415.832 571.895ZM418.033 567.772L421.192 567.783L418.033 567.772ZM421.192 567.783L422.4 569.731L423.366 571.435L425.056 574.599L421.192 567.783ZM426.757 574.605L425.056 574.599L426.757 574.605ZM426.757 574.605L427.734 572.908L428.713 570.967L430.668 567.815L426.757 574.605ZM430.668 567.815L433.826 567.826L430.668 567.815ZM433.826 567.826L434.792 569.773L435.758 571.477L437.691 574.643L433.826 567.826ZM439.149 574.648L437.691 574.643L439.149 574.648ZM439.149 574.648L440.369 572.951L441.348 571.011L443.06 567.858L439.149 574.648ZM443.06 567.858L446.218 567.869L443.06 567.858ZM446.218 567.869L447.184 569.816L448.393 571.521L450.083 574.685L446.218 567.869ZM451.783 574.691L450.083 574.685L451.783 574.691ZM451.783 574.691L452.761 572.994L453.74 571.053L455.694 567.901L451.783 574.691ZM455.694 567.901L458.853 567.912L455.694 567.901ZM458.853 567.912L459.818 569.859L460.784 571.564L462.717 574.729L458.853 567.912ZM464.175 574.734L462.717 574.729L464.175 574.734ZM464.175 574.734L465.153 573.036L466.375 571.097L468.086 567.944L464.175 574.734ZM468.086 567.944L471.245 567.955L468.086 567.944ZM471.245 567.955L472.21 569.902L473.419 571.607L475.109 574.772L471.245 567.955ZM476.81 574.777L475.109 574.772L476.81 574.777ZM476.81 574.777L477.788 573.08L478.766 571.139L480.721 567.987L476.81 574.777ZM480.721 567.987L483.637 567.998L480.721 567.987ZM483.637 567.998L484.845 569.946L485.811 571.65L487.744 574.815L483.637 567.998ZM489.202 574.82L487.744 574.815L489.202 574.82ZM489.202 574.82L490.18 573.123L491.401 571.183L493.113 568.03L489.202 574.82ZM493.113 568.03L496.272 568.041L493.113 568.03ZM496.272 568.041L497.237 569.988L498.203 571.692L499.17 573.154L496.272 568.041ZM499.17 573.154L504.291 567.826L499.17 573.154ZM504.293 567.097L504.291 567.826L504.293 567.097ZM511.34 567.121L504.293 567.097L511.34 567.121ZM518.119 574.191L518.124 572.733L517.642 571.516L517.16 570.3L516.193 569.081L515.223 568.349L514.011 567.616L512.554 567.368L511.34 567.121L518.119 574.191ZM518.105 578.078L518.119 574.191L518.105 578.078ZM706.656 578.727L518.105 578.078L706.656 578.727ZM717.628 567.831L706.656 578.727L717.628 567.831ZM752.617 567.951L717.628 567.831L752.617 567.951ZM752.614 568.68L752.617 567.951L752.614 568.68ZM752.614 568.68L756.246 572.338L752.614 568.68ZM756.246 572.338L756.247 572.095L758.202 568.943L756.246 572.338ZM758.202 568.943L761.117 568.953L758.202 568.943ZM761.117 568.953L762.326 570.901L763.292 572.605L765.225 575.77L761.117 568.953ZM766.682 575.775L765.225 575.77L766.682 575.775ZM766.682 575.775L767.66 574.078L768.639 572.137L770.594 568.985L766.682 575.775ZM770.594 568.985L773.752 568.996L770.594 568.985ZM773.752 568.996L774.717 570.943L775.684 572.648L777.616 575.813L773.752 568.996ZM779.074 575.818L777.616 575.813L779.074 575.818ZM779.074 575.818L780.295 574.121L781.274 572.181L782.985 569.028L779.074 575.818ZM782.985 569.028L786.144 569.039L782.985 569.028ZM786.144 569.039L787.352 570.987L788.318 572.691L790.008 575.856L786.144 569.039ZM791.709 575.861L790.008 575.856L791.709 575.861ZM791.709 575.861L792.687 574.164L793.666 572.223L795.62 569.071L791.709 575.861ZM795.62 569.071L798.779 569.082L795.62 569.071ZM798.779 569.082L799.744 571.029L800.71 572.734L802.643 575.899L798.779 569.082ZM804.101 575.904L802.643 575.899L804.101 575.904ZM804.101 575.904L805.322 574.207L806.3 572.267L808.012 569.114L804.101 575.904ZM808.012 569.114L811.171 569.125L808.012 569.114ZM811.171 569.125L812.136 571.072L813.345 572.777L815.035 575.942L811.171 569.125ZM816.736 575.948L815.035 575.942L816.736 575.948ZM816.736 575.948L817.714 574.25L818.692 572.31L820.647 569.158L816.736 575.948ZM820.647 569.158L823.806 569.168L820.647 569.158ZM823.806 569.168L824.771 571.116L825.737 572.82L827.67 575.985L823.806 569.168ZM829.128 575.99L827.67 575.985L829.128 575.99ZM829.128 575.99L830.106 574.293L831.327 572.353L833.039 569.2L829.128 575.99ZM833.039 569.2L836.198 569.211L833.039 569.2ZM836.198 569.211L837.163 571.158L838.372 572.863L840.062 576.028L836.198 569.211ZM841.763 576.034L840.062 576.028L841.763 576.034ZM841.763 576.034L842.74 574.336L843.719 572.396L845.674 569.244L841.763 576.034ZM845.674 569.244L848.589 569.254L845.674 569.244ZM848.589 569.254L849.798 571.202L850.764 572.906L852.697 576.071L848.589 569.254ZM854.154 576.076L852.697 576.071L854.154 576.076ZM854.154 576.076L855.132 574.379L856.111 572.438L858.066 569.286L854.154 576.076ZM858.066 569.286L861.224 569.297L858.066 569.286ZM861.224 569.297L862.189 571.244L863.156 572.949L865.088 576.114L861.224 569.297ZM866.546 576.119L865.088 576.114L866.546 576.119ZM866.546 576.119L867.767 574.422L868.746 572.482L870.457 569.329L866.546 576.119ZM870.457 569.329L873.616 569.34L870.457 569.329ZM873.616 569.34L874.824 571.288L875.79 572.992L877.48 576.157L873.616 569.34ZM879.181 576.163L877.48 576.157L879.181 576.163ZM879.181 576.163L880.159 574.465L881.138 572.525L883.092 569.373L879.181 576.163ZM883.092 569.373L886.251 569.383L883.092 569.373ZM886.251 569.383L887.216 571.331L888.182 573.035L890.115 576.2L886.251 569.383ZM891.573 576.205L890.115 576.2L891.573 576.205ZM891.573 576.205L892.794 574.509L893.772 572.568L895.484 569.415L891.573 576.205ZM895.484 569.415L898.643 569.426L895.484 569.415ZM898.643 569.426L899.608 571.373L900.817 573.078L902.507 576.243L898.643 569.426ZM902.993 576.245L902.507 576.243L902.993 576.245ZM902.993 576.245L905.431 573.823L902.993 576.245ZM905.431 573.823L906.164 572.611L908.119 569.459L905.431 573.823ZM908.119 569.459L909.82 569.465L908.119 569.459ZM909.82 569.465L910.064 569.222L909.82 569.465ZM910.316 495.843L910.064 569.222L910.316 495.843ZM910.316 495.843L906.926 492.43L910.316 495.843ZM906.926 492.43L905.214 495.583L906.926 492.43ZM905.214 495.583L902.056 495.572L905.214 495.583ZM902.056 495.572L901.09 493.868L899.882 491.92L898.192 488.755L902.056 495.572ZM896.734 488.75L898.192 488.755L896.734 488.75ZM896.734 488.75L895.512 490.69L894.534 492.387L892.58 495.539L896.734 488.75ZM892.58 495.539L889.664 495.529L892.58 495.539ZM889.664 495.529L888.455 493.824L887.49 491.877L885.8 488.712L889.664 495.529ZM884.099 488.706L885.8 488.712L884.099 488.706ZM884.099 488.706L883.12 490.647L882.142 492.344L880.188 495.496L884.099 488.706ZM880.188 495.496L877.029 495.486L880.188 495.496ZM877.029 495.486L876.063 493.781L875.098 491.834L873.165 488.669L877.029 495.486ZM871.707 488.664L873.165 488.669L871.707 488.664ZM871.707 488.664L870.485 490.603L869.508 492.301L867.796 495.454L871.707 488.664ZM867.796 495.454L864.637 495.443L867.796 495.454ZM864.637 495.443L863.428 493.738L862.463 491.791L860.773 488.626L864.637 495.443ZM859.072 488.62L860.773 488.626L859.072 488.62ZM859.072 488.62L858.094 490.561L857.116 492.258L855.161 495.41L859.072 488.62ZM855.161 495.41L852.002 495.399L855.161 495.41ZM852.002 495.399L851.036 493.695L850.071 491.748L848.138 488.583L852.002 495.399ZM846.68 488.578L848.138 488.583L846.68 488.578ZM846.68 488.578L845.702 490.518L844.481 492.215L842.769 495.368L846.68 488.578ZM842.769 495.368L839.61 495.357L842.769 495.368ZM839.61 495.357L838.644 493.653L837.436 491.705L835.746 488.54L839.61 495.357ZM834.045 488.534L835.746 488.54L834.045 488.534ZM834.045 488.534L833.067 490.475L832.089 492.172L830.134 495.324L834.045 488.534ZM830.134 495.324L826.976 495.313L830.134 495.324ZM826.976 495.313L826.01 493.609L825.044 491.662L823.111 488.497L826.976 495.313ZM821.654 488.492L823.111 488.497L821.654 488.492ZM821.654 488.492L820.675 490.432L819.454 492.129L817.743 495.282L821.654 488.492ZM817.743 495.282L814.584 495.271L817.743 495.282ZM814.584 495.271L813.618 493.566L812.41 491.618L810.72 488.454L814.584 495.271ZM743.481 469.027L743.446 479.232L743.481 469.027ZM659.375 478.943L659.411 468.738L659.375 478.943ZM658.987 591.684L659.002 587.554L658.987 591.684ZM743.446 479.232L743.436 482.148L743.446 479.232ZM710.766 584.816L709.307 585.054L707.847 585.778L706.628 586.989L705.893 588.687L705.644 590.387L706.125 591.847L707.092 593.308L708.546 594.285L710.246 594.776L711.946 594.782L713.407 594.058L714.626 592.848L715.603 591.393L715.852 589.45L715.372 587.991L714.647 586.773L713.436 585.554L711.738 584.819L710.766 584.816V584.816ZM743.481 469.027L742.508 469.267L741.049 469.748L739.829 470.958L738.852 472.656L738.603 474.356L738.841 475.814L739.808 477.276L741.018 478.495L742.718 478.987L743.446 479.232L743.481 469.027ZM658.987 591.684L659.954 593.145L661.409 594.122L663.108 594.614L664.809 594.62L666.269 593.896L667.488 592.685L668.465 591.231L668.715 589.288L668.234 587.828L667.509 586.611L666.055 585.391L664.357 584.656L663.628 584.654L661.926 584.891L660.709 585.616L659.49 586.826L659.002 587.554L658.987 591.684ZM678.814 479.01L680.272 478.772L681.734 477.805L682.953 476.594L683.687 474.896L683.693 473.195L683.212 471.735L682.245 470.517L680.791 469.297L679.092 468.805L677.39 469.042L676.174 469.524L674.954 470.735L673.977 472.432L673.728 474.132L673.966 475.591L674.69 477.051L676.143 478.271L677.843 478.763L678.814 479.01V479.01ZM659.375 478.943L660.591 478.704L662.052 477.98L663.271 476.526L664.006 474.828L664.012 473.127L663.531 471.667L662.563 470.449L661.11 469.229L659.411 468.738L659.375 478.943ZM659.374 479.429L659.375 478.943L659.374 479.429ZM659.355 484.774L659.372 479.915L659.355 484.774ZM483.398 637.489L485.828 637.255L488.261 636.291L490.21 634.84L491.917 633.145L493.139 630.962L493.634 628.534L493.643 625.861L493.165 623.43L491.958 621.239L490.263 619.532L488.324 618.068L485.898 617.087L483.469 616.836L481.038 617.071L478.605 618.034L476.656 619.485L474.949 621.18L473.727 623.363L473.233 625.791L473.224 628.464L473.701 630.895L474.909 633.086L476.603 634.793L478.542 636.258L480.969 637.238L483.398 637.489ZM484.085 437.761L486.516 437.527L488.949 436.563L490.898 435.112L492.604 433.417L493.827 431.235L494.321 428.806L494.33 426.134L493.853 423.702L492.645 421.511L490.95 419.805L489.012 418.34L486.585 417.36L484.156 417.108L481.726 417.343L479.293 418.307L477.344 419.758L475.637 421.453L474.415 423.635L473.92 426.063L473.911 428.736L474.389 431.168L475.596 433.359L477.291 435.065L479.23 436.53L481.656 437.51L484.085 437.761ZM743.753 460.524L743.926 410.349L743.753 460.524ZM743.089 653.326L743.262 603.273L743.089 653.326ZM742.655 567.796L742.54 601.084L742.655 567.796ZM742.948 482.511L742.902 496.117L742.948 482.511ZM743.016 462.829L742.998 468.175L743.016 462.829ZM905.919 573.217L906.897 571.52L908.119 569.337L905.919 573.217ZM415.372 493.775L415.129 493.774L415.372 493.775ZM502.844 494.076L502.601 494.075L502.844 494.076ZM756.247 571.973L758.202 568.821L756.247 571.973ZM766.926 575.655L768.881 572.26L770.594 568.864L766.926 575.655ZM783.228 569.15L783.229 568.907L783.228 569.15ZM820.647 569.279L820.647 569.036L820.647 569.279ZM833.038 569.322L833.282 569.08L833.038 569.322ZM858.065 569.408L858.066 569.165L858.065 569.408ZM477.817 493.99L477.574 493.989L477.817 493.99ZM870.7 569.451L870.701 569.208L870.7 569.451ZM891.816 576.085L893.772 572.69L895.727 569.295L891.816 576.085ZM808.012 569.236L808.256 568.993L808.012 569.236ZM879.182 576.041L881.38 572.647L883.093 569.251L879.182 576.041ZM795.62 569.193L795.621 568.95L795.62 569.193ZM845.673 569.365L845.674 569.122L845.673 569.365ZM714.215 571.1L713.722 573.042L712.739 576.197L712.001 578.867L711.265 581.052L710.774 582.508L710.527 583.479L710.524 584.451L714.215 571.1ZM743.481 468.905L741.536 469.385L739.588 470.593L737.882 472.045L735.928 474.954L734.46 477.865L732.99 481.504L732.007 484.66L730.776 489.272L729.298 495.099L729.052 496.07L743.481 468.905ZM739.257 496.105L739.501 495.863L740.487 491.735L741.471 488.094L742.7 484.211L743.436 482.026L739.257 496.105ZM712.191 594.419L712.92 594.178L714.868 593.213L716.574 591.518L718.528 588.609L719.996 585.698L721.223 582.301L722.449 578.903L723.681 574.048L724.912 569.192L725.16 567.735L712.191 594.419ZM710.732 594.657L711.218 594.658L710.732 594.657ZM659.762 578.444L659.508 581.602L659.257 583.788L659.249 586.218L659.005 586.46L659.762 578.444ZM677.39 468.921L677.147 468.92L675.444 469.643L672.761 472.55L670.805 476.188L669.334 480.07L668.103 484.683L677.39 468.921ZM678.849 468.683L678.119 468.923L678.849 468.683ZM659.005 586.46L659.248 586.461L659.005 586.46ZM678.551 484.719L678.8 483.019L679.292 481.077L679.299 479.133L678.551 484.719ZM668.467 590.623L668.714 589.409L668.962 587.952L669.211 586.252L669.461 584.309L669.711 582.123L669.724 578.479L668.467 590.623ZM663.594 594.494L664.08 594.496L663.594 594.494Z" stroke="#1B1B1B" stroke-linecap="round" stroke-linejoin="round"/>
<path d="M746.824 466.441L746.823 466.733L746.82 467.608L746.815 469.09L746.808 471.131L746.799 473.731L746.788 476.841L746.776 480.461L746.762 484.543L746.746 489.063L746.729 493.971L746.722 496.158" stroke="#1B1B1B" stroke-linecap="round" stroke-linejoin="round" stroke-dasharray="18 3.6 3.6 3.6 3.6 3.6"/>
<path d="M746.465 567.906L746.457 570.093L746.44 575.001L746.425 579.521L746.411 583.603L746.398 587.223L746.388 590.333L746.379 592.933L746.372 594.974L746.367 596.456L746.364 597.331L746.363 597.622" stroke="#1B1B1B" stroke-linecap="round" stroke-linejoin="round" stroke-dasharray="18 3.6 3.6 3.6 3.6 3.6"/>
<path d="M763.3 597.683L763.301 597.392L763.304 596.517L763.309 595.035L763.316 592.994L763.325 590.394L763.336 587.284L763.348 583.664L763.362 579.581L763.378 575.062L763.387 572.535" stroke="#1B1B1B" stroke-linecap="round" stroke-linejoin="round" stroke-dasharray="18 3.6 3.6 3.6 3.6 3.6"/>
<path d="M763.659 493.005L763.672 489.117L763.688 484.598L763.702 480.516L763.714 476.896L763.725 473.785L763.734 471.186L763.741 469.145L763.746 467.662L763.749 466.788L763.75 466.496" stroke="#1B1B1B" stroke-linecap="round" stroke-linejoin="round" stroke-dasharray="18 3.6 3.6 3.6 3.6 3.6"/>
<path d="M772.12 578.494L772.121 578.178L772.124 577.327L772.129 575.869L772.136 573.901L772.145 571.374L772.152 569.188" stroke="#1B1B1B" stroke-linecap="round" stroke-linejoin="round" stroke-dasharray="18 3.6 3.6 3.6 3.6 3.6"/>
<path d="M772.428 488.393L772.429 488.369L772.434 486.911L772.436 486.061L772.438 485.77" stroke="#1B1B1B" stroke-linecap="round" stroke-linejoin="round" stroke-dasharray="18 3.6 3.6 3.6 3.6 3.6"/>
<path d="M767.188 485.754L767.186 486.045L767.184 486.896L767.179 488.354L767.172 490.322L767.163 492.849L767.156 495.036" stroke="#1B1B1B" stroke-linecap="round" stroke-linejoin="round" stroke-dasharray="18 3.6 3.6 3.6 3.6 3.6"/>
<path d="M766.879 575.781L766.879 575.878L766.874 577.312L766.871 578.186L766.87 578.478" stroke="#1B1B1B" stroke-linecap="round" stroke-linejoin="round" stroke-dasharray="18 3.6 3.6 3.6 3.6 3.6"/>
<path d="M740.874 646.563L740.875 646.271L740.878 645.421L740.883 643.963L740.89 641.922L740.899 639.346L740.909 636.212L740.922 632.567L740.936 628.388L740.952 623.723L740.97 618.596L740.989 613.008L741.01 607.03L741.032 600.664L741.055 593.958L741.079 586.912L741.104 579.598L741.13 572.042L741.145 567.887" stroke="#1B1B1B" stroke-linecap="round" stroke-linejoin="round" stroke-dasharray="18 3.6 3.6 3.6 3.6 3.6"/>
<path d="M741.389 496.137L741.404 491.982L741.414 488.969" stroke="#1B1B1B" stroke-linecap="round" stroke-linejoin="round" stroke-dasharray="18 3.6 3.6 3.6 3.6 3.6"/>
<path d="M741.481 469.531L741.502 463.359L741.524 456.993L741.545 451.016L741.564 445.428L741.582 440.301L741.598 435.636L741.612 431.456L741.625 427.812L741.635 424.677L741.644 422.102L741.651 420.061L741.656 418.627L741.659 417.753L741.66 417.461" stroke="#1B1B1B" stroke-linecap="round" stroke-linejoin="round" stroke-dasharray="18 3.6 3.6 3.6 3.6 3.6"/>
<path d="M653.27 466.117L653.269 466.409L653.266 467.283L653.26 468.766L653.253 470.807L653.244 473.407L653.234 476.517L653.221 480.137L653.207 484.219L653.205 484.826" stroke="#1B1B1B" stroke-linecap="round" stroke-linejoin="round" stroke-dasharray="18 3.6 3.6 3.6 3.6 3.6"/>
<path d="M652.883 578.59L652.881 579.197L652.867 583.279L652.854 586.9L652.844 590.01L652.835 592.61L652.828 594.651L652.822 596.133L652.819 597.008L652.818 597.299" stroke="#1B1B1B" stroke-linecap="round" stroke-linejoin="round" stroke-dasharray="18 3.6 3.6 3.6 3.6 3.6"/>
<path d="M602.031 612.68L600.719 612.675" stroke="#1B1B1B" stroke-linecap="round" stroke-linejoin="round" stroke-dasharray="18 3.6 3.6 3.6 3.6 3.6"/>
<path d="M493.59 443.699L493.589 443.991L493.586 444.89L493.581 446.372L493.574 448.437L493.565 451.061L493.554 454.22L493.541 457.938L493.537 459.104" stroke="#1B1B1B" stroke-linecap="round" stroke-linejoin="round" stroke-dasharray="18 3.6 3.6 3.6 3.6 3.6"/>
<path d="M493.008 613.977L493.001 615.944L492.996 617.45L492.993 618.325L492.992 618.641" stroke="#1B1B1B" stroke-linecap="round" stroke-linejoin="round" stroke-dasharray="18 3.6 3.6 3.6 3.6 3.6"/>
<path d="M515.145 443.773L515.144 444.065L515.14 444.964L515.135 446.446L515.128 448.511L515.119 451.136L515.108 454.294L515.096 458.012L515.081 462.215L515.065 466.881L515.049 471.619" stroke="#1B1B1B" stroke-linecap="round" stroke-linejoin="round" stroke-dasharray="18 3.6 3.6 3.6 3.6 3.6"/>
<path d="M514.566 610.969L514.565 611.333L514.556 613.982L514.549 616.023L514.544 617.529L514.541 618.404L514.54 618.72" stroke="#1B1B1B" stroke-linecap="round" stroke-linejoin="round" stroke-dasharray="18 3.6 3.6 3.6 3.6 3.6"/>
<path d="M560.156 580.553L560.157 580.261L560.16 579.387L560.164 578.27" stroke="#1B1B1B" stroke-linecap="round" stroke-linejoin="round" stroke-dasharray="18 3.6 3.6 3.6 3.6 3.6"/>
<path d="M560.488 484.506L560.492 483.389L560.495 482.514L560.496 482.223" stroke="#1B1B1B" stroke-linecap="round" stroke-linejoin="round" stroke-dasharray="18 3.6 3.6 3.6 3.6 3.6"/>
<path d="M198.762 591.023L198.666 591.023" stroke="#1B1B1B" stroke-linecap="round" stroke-linejoin="round" stroke-dasharray="18 3.6 3.6 3.6 3.6 3.6"/>
<path d="M469.904 618.54L469.905 618.248L469.908 617.349L469.91 616.742" stroke="#1B1B1B" stroke-linecap="round" stroke-linejoin="round" stroke-dasharray="18 3.6 3.6 3.6 3.6 3.6"/>
<path d="M470.501 445.682L470.504 444.807L470.507 443.909L470.508 443.617" stroke="#1B1B1B" stroke-linecap="round" stroke-linejoin="round" stroke-dasharray="18 3.6 3.6 3.6 3.6 3.6"/>
<path d="M409.766 640.203L409.762 641.296L409.758 642.341L409.756 643.094L409.754 643.555L409.754 643.701" stroke="#1B1B1B" stroke-linecap="round" stroke-linejoin="round" stroke-dasharray="18 3.6 3.6 3.6 3.6 3.6"/>
<path d="M453.523 634.738L448.275 634.72" stroke="#1B1B1B" stroke-linecap="round" stroke-linejoin="round" stroke-dasharray="18 3.6 3.6 3.6 3.6 3.6"/>
<path d="M403.328 475.41L403.281 489.114" stroke="#1B1B1B" stroke-linecap="round" stroke-linejoin="round" stroke-dasharray="18 3.6 3.6 3.6 3.6 3.6"/>
<path d="M401.582 478.008L401.533 492.149" stroke="#1B1B1B" stroke-linecap="round" stroke-linejoin="round" stroke-dasharray="18 3.6 3.6 3.6 3.6 3.6"/>
</g>
</svg>
