<svg width="120" height="65" viewBox="0 0 120 65" fill="none" xmlns="http://www.w3.org/2000/svg">
<path d="M73.6517 49.3035C73.1345 47.6262 72.9529 45.8634 73.1174 44.1159V31.6481C73.1174 27.1953 73.1174 23.9002 73.1174 20.1599C72.9997 18.4393 73.1959 16.7118 73.6962 15.0614C74.1842 14.3293 74.8467 13.7302 75.6241 13.3182C76.4015 12.9062 77.2692 12.6942 78.149 12.7014V12.1448H62.2971V12.7014C63.1024 12.7249 63.895 12.9082 64.6289 13.2407C65.3627 13.5732 66.0232 14.0483 66.5717 14.6384C67.3242 16.7021 67.5908 18.9115 67.351 21.0949V31.8485C67.351 35.9005 67.351 41.2439 67.2397 43.2922C67.4255 45.2888 67.1748 47.302 66.505 49.1921C65.3631 50.4804 63.7679 51.2779 62.0522 51.4185V51.9751H78.06V51.4185C76.3698 51.3247 74.7782 50.5926 73.6072 49.3702L73.6517 49.3035ZM104.02 12.2561C111.1 12.2561 116.643 17.8889 118.536 24.9466H119.182V12.5233H118.603C118.013 13.5573 117.218 14.4591 116.265 15.1727C112.502 12.5364 107.989 11.1854 103.396 11.3211C99.8346 11.127 96.2869 11.9025 93.1309 13.5648C89.9748 15.2271 87.3286 17.7141 85.4739 20.761C83.4519 24.1235 82.375 27.9694 82.3569 31.893C82.3569 43.7597 90.5501 52.22 103.708 52.22C108.141 52.2672 112.485 50.9795 116.176 48.5242C116.488 48.5242 117.601 49.7265 118.402 50.9955H119.026L119.182 38.8394H118.491C117.819 42.2118 116.038 45.2626 113.432 47.5058C110.826 49.7491 107.544 51.0559 104.109 51.2181C94.7802 51.2181 88.7467 42.8246 88.7467 32.1602C88.7467 22.2304 94.2904 12.1226 104.02 12.1226V12.2561ZM45.9775 44.6503L45.4432 44.0714C46.8323 40.1538 47.5401 36.0273 47.536 31.8707C47.5405 27.5579 46.7323 23.2829 45.1538 19.2693L45.7772 18.6236C48.8111 22.3582 50.4417 27.0372 50.3858 31.8485C50.4117 36.4998 48.8398 41.019 45.933 44.6503H45.9775ZM42.5044 40.9545C40.9712 39.743 39.169 38.9183 37.2501 38.5499V38.7058C37.9825 40.459 38.9813 42.0887 40.2112 43.5371L41.0572 44.4276C40.2402 46.3116 38.909 47.9273 37.2162 49.0897C35.5234 50.2521 33.5375 50.9142 31.4858 51.0002C29.4341 51.0861 27.3997 50.5925 25.6156 49.5758C23.8315 48.5591 22.3699 47.0604 21.3981 45.2514L22.066 44.6057L22.3777 44.2718C23.6689 42.6057 24.5327 40.6489 24.8935 38.5722H24.7377C23.0413 39.3545 21.4786 40.3989 20.1068 41.6669L19.7728 42.0008C18.677 38.891 18.1345 35.6131 18.1698 32.316C18.154 29.2145 18.6119 26.1287 19.5279 23.1655C21.0713 24.4145 22.899 25.2633 24.849 25.6368V25.481C24.1187 23.7315 23.1279 22.1026 21.9102 20.6497L20.9528 19.6478C21.7777 17.7701 23.1161 16.1635 24.8141 15.0131C26.512 13.8628 28.5003 13.2154 30.5501 13.1456C32.5998 13.0758 34.6276 13.5864 36.3998 14.6186C38.1721 15.6508 39.6167 17.1626 40.5674 18.9799L40.0553 19.4919L39.7214 19.8259C38.4334 21.4914 37.5768 23.4492 37.2278 25.5255H37.3614C39.0633 24.741 40.633 23.697 42.0145 22.4308L42.2149 22.2081C43.3673 25.2837 43.9555 28.5419 43.9515 31.8262C43.9517 34.8969 43.4632 37.9482 42.5044 40.8654V40.9545ZM31.1497 56.0717C28.4987 56.0807 25.8967 55.358 23.6301 53.9831C21.3635 52.6082 19.5203 50.6345 18.3034 48.2793L18.86 47.7004C22.3794 50.5168 26.7779 52.0045 31.2843 51.9027C35.7907 51.8009 40.1175 50.1162 43.5062 47.1438L43.8402 47.4778C41.124 52.554 36.8938 56.1608 31.1052 56.1608L31.1497 56.0717ZM30.9939 7.91466C33.6244 7.97868 36.1868 8.76424 38.4012 10.1856C40.6157 11.6069 42.397 13.6093 43.5508 15.9742L43.3504 16.1969C40.0412 13.538 35.9063 12.1203 31.6618 12.1893C26.7992 12.0907 22.0615 13.7331 18.3034 16.8203L17.9694 16.4863C19.078 13.9686 20.8865 11.8224 23.1796 10.3028C25.4728 8.78328 28.1542 7.95435 30.9048 7.91466H30.9939ZM16.3887 45.3182C13.4316 41.6406 11.7938 37.0773 11.7372 32.3587C11.6807 27.6401 13.2088 23.0389 16.077 19.2916L16.6559 19.915C15.3155 23.9033 14.6459 28.0863 14.6744 32.2937C14.6213 36.6183 15.3764 40.9147 16.9008 44.962L16.3887 45.3182ZM60.4937 58.6766C59.2469 58.6766 57.822 57.1626 55.7737 55.0253L49.5843 48.5687C53.5062 43.8679 55.6289 37.9257 55.5733 31.8039C55.6435 25.5497 53.4893 19.474 49.4953 14.6607C51.9443 12.1003 53.7699 10.2079 55.9073 7.98145L56.4416 7.42485C57.2802 6.42226 58.3291 5.61654 59.514 5.06487C60.0317 4.90099 60.5795 4.85534 61.1171 4.93129L56.4862 0.0332031C56.5203 0.41092 56.5203 0.790955 56.4862 1.16867C56.3748 2.48225 55.0167 3.97394 52.9907 6.11128L47.2466 12.2339C42.9559 8.59684 37.4859 6.64953 31.8622 6.75694C25.5919 6.65977 19.4997 8.84344 14.7189 12.9018C12.1585 10.2301 10.2661 8.27089 8.03968 5.9777L7.52761 5.39883C6.56139 4.50458 5.80163 3.41053 5.30121 2.19281C5.13753 1.65222 5.09197 1.08276 5.16763 0.523014L0.492188 5.46563C0.846948 5.41996 1.2061 5.41996 1.56086 5.46563C2.80764 5.59921 4.2548 7.00185 6.28083 9.13919L12.2253 15.3954C8.37883 20.2314 6.32762 26.2513 6.42099 32.4299C6.51436 38.6084 8.74653 44.5635 12.7374 49.2812C10.177 51.9751 8.28459 53.9121 6.05819 56.1385L5.50159 56.6951C4.66304 57.6977 3.61407 58.5034 2.42916 59.0551C1.90285 59.1861 1.35245 59.1861 0.826147 59.0551L5.54612 64.0199C5.51277 63.6422 5.51277 63.2622 5.54612 62.8845C5.65744 61.5709 7.01554 60.0792 9.04156 57.9419L15.1642 51.5744C19.6837 55.3577 25.4161 57.3843 31.3092 57.282C37.2024 57.1798 42.861 54.9556 47.2466 51.0178C49.8515 53.734 51.6994 55.7155 53.9258 58.0309L54.4601 58.6098C55.4195 59.51 56.1782 60.6024 56.6865 61.8158C56.8327 62.3597 56.8705 62.9271 56.7978 63.4856L61.5401 58.543C61.1786 58.599 60.8106 58.599 60.4491 58.543" fill="#1B1B1B"/>
</svg>
